<?xml version="1.0" standalone="no"?>
<!DOCTYPE svg PUBLIC "-//W3C//DTD SVG 20010904//EN"
 "http://www.w3.org/TR/2001/REC-SVG-20010904/DTD/svg10.dtd">
<svg version="1.0" xmlns="http://www.w3.org/2000/svg"
 width="550.000000pt" height="550.000000pt" viewBox="0 0 550.000000 550.000000"
 preserveAspectRatio="xMidYMid meet">
<metadata>
Created by potrace 1.14, written by Peter Selinger 2001-2017
</metadata>
<g transform="translate(0.000000,550.000000) scale(0.100000,-0.100000)"
fill="#000000" stroke="none">
<path d="M0 5390 c0 -67 4 -110 10 -110 6 0 10 -13 10 -30 0 -16 -4 -30 -10
-30 -6 0 -10 -67 -10 -180 l0 -180 25 0 c14 0 25 5 25 10 0 6 11 10 24 10 14
0 28 -4 31 -10 3 -5 1 -10 -4 -10 -6 0 -11 -9 -11 -21 0 -11 -7 -27 -15 -35
-8 -9 -15 -24 -15 -35 0 -12 -7 -19 -20 -19 -11 0 -20 5 -20 10 0 6 -4 10 -10
10 -5 0 -10 -16 -10 -35 0 -28 4 -35 19 -35 24 0 31 -19 21 -61 -6 -27 -9 -30
-15 -16 -17 41 -25 9 -25 -107 0 -90 3 -126 13 -130 9 -5 9 -7 0 -12 -15 -7
-18 -94 -3 -94 6 0 10 5 10 10 0 6 5 10 10 10 6 0 10 -9 10 -20 0 -13 -7 -20
-20 -20 -16 0 -20 -7 -20 -35 0 -28 4 -35 20 -35 11 0 20 -4 20 -10 0 -5 7
-10 15 -10 9 0 15 -9 15 -23 0 -12 9 -29 20 -37 13 -9 20 -26 20 -47 0 -20 5
-33 13 -33 8 0 7 -4 -3 -10 -8 -5 -39 -10 -67 -10 -46 0 -53 -3 -53 -20 0 -11
5 -20 10 -20 6 0 10 -9 10 -20 0 -11 -4 -20 -10 -20 -14 0 -12 -27 3 -34 9 -5
9 -7 -1 -12 -16 -7 -18 -824 -2 -824 6 0 10 -9 10 -20 0 -11 -4 -20 -10 -20
-5 0 -10 -22 -10 -50 0 -47 11 -63 25 -40 10 16 45 -8 45 -30 0 -11 5 -20 10
-20 6 0 10 -9 10 -20 0 -11 -4 -20 -9 -20 -5 0 -14 -12 -19 -27 -6 -16 -11
-22 -11 -15 -1 6 -8 12 -16 12 -8 0 -15 7 -15 15 0 8 -4 15 -10 15 -7 0 -10
-175 -10 -505 0 -278 4 -505 8 -505 5 0 17 7 28 15 10 8 27 15 37 15 9 0 17 5
17 10 0 6 14 10 30 10 17 0 30 5 30 10 0 6 9 10 20 10 11 0 23 7 26 15 4 8 17
15 29 15 13 0 27 4 30 10 3 5 17 10 31 10 13 0 24 5 24 10 0 6 10 10 21 10 12
0 29 8 38 18 9 10 46 27 83 37 37 10 65 22 62 26 -3 5 6 9 20 9 14 0 26 5 26
10 0 6 9 10 20 10 11 0 20 4 20 9 0 14 69 43 88 37 23 -8 38 4 46 37 3 15 15
35 26 45 11 9 20 24 20 34 0 10 5 18 10 18 6 0 10 20 10 45 0 25 5 45 10 45 6
0 10 25 10 55 0 30 5 55 10 55 6 0 10 15 10 34 0 18 7 39 15 46 10 8 15 31 15
66 0 30 5 54 10 54 6 0 10 25 10 55 0 30 5 55 10 55 6 0 10 38 10 94 0 53 4
98 10 101 5 3 10 13 10 22 0 9 11 26 25 39 14 13 25 29 25 36 0 8 9 20 20 28
11 8 20 22 20 32 0 10 5 18 10 18 6 0 10 7 10 15 0 9 9 15 25 15 14 0 25 5 25
10 0 6 7 10 15 10 9 0 35 20 59 45 25 25 51 45 60 45 9 0 16 5 16 10 0 6 15
10 34 10 19 0 36 4 38 9 2 5 10 11 18 13 8 2 17 12 20 23 3 11 15 22 25 24 11
2 33 19 50 37 17 19 39 34 48 34 9 0 17 5 17 10 0 16 99 12 116 -5 19 -19 30
-19 46 0 7 9 23 27 36 40 12 13 22 33 22 45 0 13 7 20 20 20 11 0 20 4 20 8 0
14 36 52 49 52 15 0 41 25 41 39 0 6 5 11 10 11 11 0 80 65 80 75 0 11 28 35
40 35 21 0 0 64 -31 91 -18 17 -29 37 -29 54 0 14 -6 33 -14 41 -18 17 -73 19
-78 2 -6 -16 -38 14 -38 34 0 39 -57 51 -90 18 -11 -11 -27 -20 -35 -20 -12 0
-15 -14 -15 -65 0 -37 4 -65 10 -65 6 0 10 -28 10 -63 0 -35 4 -67 9 -72 16
-18 21 -86 7 -91 -20 -8 -7 -44 15 -44 12 0 19 -7 19 -20 0 -14 -7 -20 -24
-20 -13 0 -26 -4 -28 -9 -1 -5 -19 -11 -40 -12 -31 -3 -41 2 -72 36 -33 36
-36 44 -36 102 0 35 -4 63 -10 63 -6 0 -10 28 -10 65 0 36 -5 74 -12 85 -10
15 -9 24 2 44 14 28 50 36 50 11 0 -8 5 -15 10 -15 6 0 10 -26 10 -58 0 -32 3
-62 7 -65 9 -10 43 50 43 76 0 13 -5 28 -11 34 -6 6 -11 35 -12 64 -1 30 -6
59 -9 65 -29 45 -39 110 -34 222 10 240 24 415 34 421 12 7 11 36 -1 47 -11
11 -8 62 3 69 5 3 10 33 10 66 0 33 4 59 10 59 6 0 10 16 10 35 0 19 5 35 10
35 6 0 10 9 10 20 0 11 5 20 10 20 6 0 10 16 10 35 0 19 5 35 10 35 6 0 10 8
10 17 0 9 19 34 42 55 35 32 49 38 86 38 24 0 41 4 38 9 -3 5 1 12 10 15 8 3
12 10 9 16 -12 19 6 32 19 14 16 -22 62 -12 71 15 6 21 39 61 49 61 4 0 14 7
22 15 9 8 26 15 40 15 13 0 24 5 24 10 0 6 9 10 20 10 11 0 20 5 20 10 0 6 20
10 45 10 25 0 45 5 45 10 0 6 28 10 65 10 37 0 65 -4 65 -10 0 -5 8 -10 18
-10 10 0 26 -15 36 -35 11 -20 27 -35 37 -35 9 0 20 -6 22 -12 4 -9 18 0 40
25 26 27 43 37 66 37 17 0 31 5 31 10 0 6 9 10 20 10 12 0 20 7 20 16 0 10 5
14 16 10 8 -3 26 1 40 10 17 12 36 15 67 10 53 -8 77 0 77 25 0 18 -18 19
-576 19 -607 0 -604 0 -604 -44 0 -8 -9 -18 -20 -21 -11 -3 -20 -15 -20 -26 0
-10 -4 -19 -10 -19 -5 0 -10 -8 -10 -19 0 -10 -11 -27 -25 -37 -14 -10 -25
-27 -25 -36 0 -10 -4 -18 -10 -18 -5 0 -10 -16 -10 -35 0 -19 -4 -35 -10 -35
-5 0 -10 -18 -10 -39 0 -22 -4 -42 -9 -45 -5 -4 -12 -24 -16 -46 -4 -22 -11
-42 -16 -46 -5 -3 -9 -34 -9 -70 0 -57 -2 -64 -20 -64 -15 0 -20 -7 -20 -24 0
-14 -4 -27 -10 -31 -5 -3 -12 -34 -17 -68 l-7 -62 -7 45 c-13 82 -11 157 6
164 10 3 15 19 15 46 0 22 5 40 10 40 6 0 10 16 10 35 0 19 4 35 9 35 5 0 11
21 14 48 3 26 9 62 13 80 6 31 5 33 -17 30 -20 -3 -23 -8 -22 -45 0 -36 -3
-43 -19 -43 -32 0 -47 21 -36 52 5 14 16 29 24 32 8 3 14 15 14 27 0 19 4 20
40 16 29 -3 40 -1 40 9 0 8 5 14 11 14 23 0 39 30 39 75 0 28 -4 44 -10 40 -5
-3 -10 -1 -10 4 0 6 8 11 19 11 10 0 21 8 24 18 2 9 8 25 12 35 7 16 -4 17
-138 17 -107 0 -147 -3 -151 -12 -5 -10 -7 -10 -12 0 -4 8 -31 12 -83 12 l-77
0 0 -32 c1 -31 4 -33 36 -34 21 0 34 -6 33 -12 -2 -7 1 -12 6 -12 5 0 11 -10
13 -22 2 -19 9 -23 38 -23 29 0 36 4 38 23 3 22 42 33 42 12 0 -5 -7 -10 -15
-10 -8 0 -15 -9 -15 -20 0 -18 -7 -20 -75 -20 -43 0 -75 4 -75 10 0 6 -9 10
-19 10 -11 0 -23 -4 -26 -10 -3 -5 -15 -10 -26 -10 -10 0 -19 5 -19 10 0 19
-42 10 -47 -10 -6 -22 -39 -27 -45 -8 -3 9 -9 8 -22 -5 -25 -24 -176 -25 -176
-1 0 12 -5 14 -17 9 -21 -9 -33 -9 -90 1 -33 5 -43 11 -43 25 0 11 5 19 10 19
6 0 10 9 10 20 0 27 -17 25 -26 -2 l-7 -23 -10 22 c-5 13 -18 25 -28 28 -11 4
-19 10 -19 14 0 10 -32 10 -46 0 -6 -5 -19 -1 -32 11 -12 11 -28 20 -37 20 -8
0 -15 5 -15 10 0 6 -30 10 -70 10 -63 0 -70 -2 -70 -20 0 -11 -5 -20 -11 -20
-5 0 -7 5 -4 10 3 6 -1 10 -9 10 -9 0 -16 5 -16 10 0 6 -4 10 -10 10 -5 0 -10
-12 -10 -28 0 -26 -29 -62 -50 -62 -5 0 -12 11 -16 25 -3 14 -10 25 -15 25 -5
0 -9 9 -9 20 0 17 -7 20 -45 20 l-45 0 0 -110z m350 -10 c0 -5 -4 -10 -10 -10
-5 0 -10 5 -10 10 0 6 5 10 10 10 6 0 10 -4 10 -10z m1050 -10 c0 -16 -7 -20
-35 -20 -34 0 -34 1 -17 19 23 26 52 27 52 1z m-870 -70 c0 -13 -7 -20 -20
-20 -11 0 -20 -4 -20 -10 0 -16 -42 -11 -55 7 -19 25 2 42 53 43 35 0 42 -3
42 -20z m640 -31 c0 -4 28 -11 63 -16 36 -4 51 -9 37 -11 -14 -2 -27 -8 -30
-13 -5 -7 -52 -14 -122 -19 -13 0 -9 -70 4 -70 9 0 9 -3 0 -12 -7 -7 -12 -20
-12 -30 0 -15 -9 -18 -65 -18 -37 0 -65 4 -65 10 0 6 -12 10 -26 10 -14 0 -23
4 -19 10 3 6 1 10 -5 10 -6 0 -18 7 -26 15 -21 21 -32 19 -36 -7 -3 -20 -10
-23 -55 -26 -32 -2 -53 1 -53 7 0 6 -7 11 -15 11 -8 0 -15 -4 -15 -10 0 -5 -9
-10 -20 -10 -11 0 -20 -4 -20 -10 0 -5 -6 -10 -14 -10 -8 0 -16 -5 -18 -12 -3
-9 -6 -9 -11 -1 -4 6 0 19 9 27 15 15 15 19 0 41 -9 13 -16 36 -16 50 0 21 5
25 30 25 17 0 40 8 51 19 12 11 42 21 81 25 91 9 108 8 108 -9 0 -8 4 -15 9
-15 5 0 14 7 21 15 7 8 28 15 46 15 24 0 34 -5 34 -15 0 -10 10 -15 34 -15 19
0 36 3 38 8 10 22 78 50 78 31z m-790 -23 c0 -3 -4 -8 -10 -11 -5 -3 -10 -1
-10 4 0 6 5 11 10 11 6 0 10 -2 10 -4z m200 -26 c0 -5 -7 -10 -15 -10 -8 0
-15 -4 -15 -10 0 -5 -9 -10 -19 -10 -11 0 -22 -6 -25 -12 -5 -10 -7 -10 -12 0
-7 14 -34 16 -34 2 0 -5 -9 -10 -20 -10 -11 0 -20 -7 -20 -15 0 -8 9 -15 20
-15 11 0 20 -4 20 -10 0 -5 5 -10 11 -10 20 0 39 -29 39 -59 0 -17 5 -31 11
-31 5 0 7 -4 4 -10 -10 -15 -35 -12 -35 5 0 23 -28 18 -55 -11 -22 -24 -26
-25 -40 -11 -26 26 -19 54 15 61 37 7 39 29 3 45 -16 8 -35 17 -43 21 -24 12
-19 54 8 58 12 2 22 8 22 13 0 5 25 9 55 9 30 0 55 5 55 10 0 6 16 10 35 10
19 0 35 -4 35 -10z m-337 -49 c6 -25 1 -30 -24 -24 -10 3 -19 14 -19 24 0 25
36 25 43 0z m1017 -13 c0 -5 -13 -8 -30 -8 -16 0 -30 4 -30 9 0 5 14 8 30 7
17 0 30 -4 30 -8z m-1080 -34 c0 -17 -5 -24 -19 -24 -11 0 -23 5 -26 10 -3 6
-2 10 3 10 5 0 12 9 15 21 7 27 27 15 27 -17z m150 -14 c0 -23 -4 -30 -20 -30
-16 0 -20 7 -20 30 0 23 4 30 20 30 16 0 20 -7 20 -30z m-200 -16 c0 -11 -29
-34 -44 -34 -19 0 -20 6 -3 25 12 14 47 21 47 9z m1076 -44 c8 0 14 -9 14 -19
0 -11 6 -22 13 -25 10 -5 10 -7 0 -12 -7 -3 -13 -18 -13 -34 0 -16 -7 -30 -16
-34 -12 -5 -14 -14 -9 -46 7 -44 2 -49 -23 -23 -12 12 -13 18 -4 21 6 2 12 17
12 33 0 16 5 29 10 29 6 0 10 7 10 15 0 8 -8 15 -19 15 -14 0 -21 10 -25 35
-8 41 0 59 21 51 8 -3 21 -6 29 -6z m-546 -30 c0 -14 28 -12 32 2 3 9 9 8 21
-4 23 -23 21 -48 -3 -48 -11 0 -20 5 -20 10 0 6 -20 10 -45 10 -38 0 -45 3
-45 20 0 16 7 20 30 20 17 0 30 -4 30 -10z m-110 -50 c0 -11 -4 -20 -10 -20
-15 0 -12 -19 4 -36 17 -16 36 -19 36 -4 0 6 9 10 20 10 17 0 20 -7 20 -45 0
-38 3 -45 20 -45 11 0 20 -3 20 -7 0 -5 -33 -9 -72 -11 -40 -2 -75 -7 -78 -11
-7 -11 -40 -10 -40 1 0 16 -46 7 -60 -12 -8 -11 -20 -20 -27 -20 -7 0 -13 -4
-13 -10 0 -5 -7 -10 -15 -10 -8 0 -15 5 -15 10 0 6 -18 10 -40 10 -22 0 -40
-4 -40 -10 0 -5 -9 -10 -19 -10 -11 0 -21 -4 -23 -8 -1 -5 -15 -12 -30 -16
-21 -5 -28 -3 -28 8 0 7 -3 28 -6 45 -5 24 -3 31 9 31 8 0 17 4 19 10 5 14
161 16 166 2 9 -27 72 -3 72 27 0 6 7 11 15 11 8 0 15 5 15 10 0 6 7 10 16 10
18 0 47 27 50 46 1 8 -5 18 -13 23 -14 7 -14 11 -2 24 20 23 49 21 49 -3z
m-330 -25 c0 -18 -5 -25 -20 -25 -15 0 -20 7 -20 25 0 18 5 25 20 25 15 0 20
-7 20 -25z m-70 -29 c0 -2 3 -11 6 -20 5 -12 0 -16 -20 -16 -19 0 -26 5 -26
20 0 13 7 20 20 20 11 0 20 -2 20 -4z m1076 -100 c19 -20 18 -26 -6 -26 -13 0
-20 7 -20 20 0 24 6 25 26 6z m-616 -56 c10 -6 11 -10 3 -10 -7 0 -13 -7 -13
-15 0 -15 -21 -21 -33 -9 -7 8 10 44 21 44 4 0 14 -5 22 -10z m378 -27 c-10
-2 -28 -2 -40 0 -13 2 -5 4 17 4 22 1 32 -1 23 -4z m-878 -43 c0 -16 -4 -30
-10 -30 -5 0 -10 5 -10 10 0 6 -7 10 -15 10 -17 0 -18 2 -9 24 3 9 15 16 25
16 14 0 19 -7 19 -30z m780 26 c0 -3 -4 -8 -10 -11 -5 -3 -10 -1 -10 4 0 6 5
11 10 11 6 0 10 -2 10 -4z m-70 -71 c0 -21 102 -21 120 0 16 20 100 18 100 -2
0 -7 5 -13 12 -13 9 0 9 -3 0 -12 -20 -20 -14 -28 23 -28 39 0 44 -9 15 -28
-12 -7 -20 -8 -20 -2 0 15 -117 13 -124 -2 -5 -10 -7 -10 -12 0 -3 7 -25 12
-54 12 -27 0 -52 5 -55 10 -3 6 -15 10 -26 10 -10 0 -19 4 -19 9 0 5 -10 11
-22 13 -21 3 -30 21 -21 41 2 4 22 7 44 7 28 0 39 -4 39 -15z m-497 -2 c-7 -2
-13 -16 -13 -29 0 -21 5 -24 36 -24 21 0 33 4 29 10 -4 6 20 10 64 10 70 0 71
0 59 -21 -10 -17 -10 -23 0 -26 7 -3 12 -22 12 -44 l0 -39 63 0 c51 0 64 -4
74 -20 9 -13 9 -21 2 -25 -6 -4 -6 -11 -1 -18 5 -7 12 -24 16 -39 3 -15 15
-30 26 -33 11 -3 20 -11 20 -16 0 -5 11 -9 25 -9 22 0 25 4 25 35 0 25 4 35
16 35 27 0 44 27 44 69 0 39 2 41 30 41 17 0 30 -4 30 -10 0 -5 7 -10 15 -10
8 0 15 -7 15 -15 0 -8 5 -15 11 -15 6 0 4 -7 -5 -15 -8 -8 -21 -15 -28 -15
-16 0 -48 -35 -48 -53 1 -22 27 -47 49 -47 11 0 21 -4 21 -10 0 -15 50 -12 51
3 0 10 2 10 6 0 2 -7 11 -13 19 -13 8 0 14 -4 14 -10 0 -5 9 -10 20 -10 16 0
20 -7 20 -35 0 -28 -3 -33 -16 -28 -10 4 -20 0 -26 -10 -6 -12 -23 -17 -60
-17 -39 0 -55 -5 -69 -22 -11 -11 -19 -16 -19 -10 0 8 -26 12 -80 12 -47 0
-80 4 -80 10 0 6 -7 10 -15 10 -8 0 -15 -4 -15 -10 0 -5 -5 -10 -11 -10 -5 0
-8 4 -5 9 3 5 -1 11 -9 15 -8 3 -15 17 -15 31 0 40 -22 55 -79 55 -28 0 -51 5
-51 10 0 6 5 10 10 10 15 0 12 30 -2 31 -10 0 -10 2 0 6 6 2 12 14 12 25 0 12
7 26 16 32 13 10 11 15 -20 31 -20 11 -36 23 -36 27 0 5 -16 8 -35 8 -19 0
-35 5 -35 10 0 6 -7 10 -15 10 -8 0 -15 -4 -15 -10 0 -5 -13 -10 -30 -10 -28
0 -30 -3 -30 -35 l0 -35 -55 0 c-53 0 -72 11 -39 24 12 5 3 19 -41 62 -44 45
-61 55 -80 51 -16 -3 -25 0 -25 9 0 7 -6 14 -12 16 -25 9 20 38 56 38 20 0 36
5 36 10 0 6 16 10 35 10 28 0 35 -4 35 -20 0 -11 5 -20 10 -20 6 0 10 -11 10
-25 0 -20 5 -25 24 -25 13 0 27 -6 29 -12 4 -10 8 -9 17 2 9 11 13 12 17 3 6
-16 33 -17 33 -2 0 8 5 7 16 -2 11 -9 18 -9 22 -2 4 6 21 13 37 15 22 2 31 9
33 26 5 30 -34 30 -60 0 -16 -18 -21 -20 -28 -8 -7 11 -11 11 -23 1 -10 -8
-17 -9 -22 -1 -3 5 -13 10 -21 10 -9 0 -22 6 -30 14 -16 17 -19 46 -4 46 6 0
10 9 10 20 0 14 6 20 23 19 12 0 16 -3 10 -6z m277 -79 c0 -24 2 -25 43 -19
38 6 46 4 75 -23 32 -30 45 -56 16 -31 -13 10 -17 10 -26 -2 -7 -11 -11 -11
-15 -1 -2 6 -18 12 -33 12 -17 0 -33 7 -38 16 -6 12 -18 15 -36 12 -15 -3 -29
-1 -32 3 -3 5 2 9 10 9 10 0 16 9 16 25 0 14 5 25 10 25 6 0 10 -12 10 -26z
m493 -56 c4 -10 8 -10 15 1 8 11 15 9 36 -12 14 -14 26 -32 26 -39 -1 -23 -27
-48 -49 -48 -12 0 -19 -4 -16 -10 3 -5 -1 -10 -10 -10 -9 0 -13 -4 -10 -10 3
-5 -1 -10 -9 -10 -9 0 -16 -5 -16 -11 0 -8 -5 -7 -16 2 -13 10 -17 10 -24 -1
-6 -10 -14 -6 -36 15 -18 18 -24 30 -16 33 14 4 16 32 2 32 -5 0 -10 9 -10 20
0 13 7 20 20 20 11 0 20 5 20 10 0 6 16 10 35 10 19 0 35 5 35 10 0 14 17 12
23 -2z m153 -22 c18 -19 18 -63 0 -81 -12 -12 -15 -12 -20 1 -3 8 -10 12 -16
9 -15 -9 -12 53 3 70 15 18 16 18 33 1z m104 -37 c0 -17 -4 -28 -10 -24 -5 3
-10 17 -10 31 0 13 5 24 10 24 6 0 10 -14 10 -31z m-400 -29 c0 -5 -2 -10 -4
-10 -3 0 -8 5 -11 10 -3 6 -1 10 4 10 6 0 11 -4 11 -10z m200 -110 c0 -5 -2
-10 -4 -10 -3 0 -8 5 -11 10 -3 6 -1 10 4 10 6 0 11 -4 11 -10z m-1009 -122
c27 -30 24 -38 -16 -38 -32 0 -35 2 -35 30 0 36 24 40 51 8z m1175 8 c21 -21
18 -26 -16 -26 -33 0 -36 4 -17 25 15 18 16 18 33 1z m-1101 -36 c3 -6 -4 -10
-17 -10 -18 0 -20 2 -8 10 19 12 18 12 25 0z m470 0 c3 -5 1 -10 -4 -10 -6 0
-11 5 -11 10 0 6 2 10 4 10 3 0 8 -4 11 -10z m-525 -70 c0 -5 -7 -10 -15 -10
-8 0 -15 5 -15 10 0 6 7 10 15 10 8 0 15 -4 15 -10z m576 -4 c16 -17 19 -46 4
-46 -5 0 -10 -11 -10 -25 0 -14 4 -25 9 -25 5 0 15 -20 22 -45 7 -25 17 -45
22 -45 14 0 37 -27 37 -44 0 -11 -9 -16 -30 -16 -16 0 -30 5 -30 10 0 6 -16
10 -35 10 -32 0 -35 2 -35 31 0 48 -19 59 -105 59 -53 0 -74 3 -69 11 3 6 17
9 30 6 16 -3 29 3 41 19 18 24 53 33 53 14 0 -5 11 -10 25 -10 20 0 25 5 25
25 0 14 -4 25 -10 25 -14 0 -12 28 3 45 16 18 35 19 53 1z m-516 -86 c0 -5 -4
-10 -10 -10 -5 0 -10 5 -10 10 0 6 5 10 10 10 6 0 10 -4 10 -10z m840 0 c0 -5
7 -10 15 -10 8 0 15 -6 15 -14 0 -7 13 -19 30 -26 25 -10 27 -14 15 -26 -19
-19 -31 -18 -76 8 -31 17 -39 28 -39 50 0 21 5 28 20 28 11 0 20 -4 20 -10z
m-883 -60 c18 0 24 -5 21 -17 -2 -10 -11 -18 -20 -18 -9 0 -26 -11 -37 -24
l-20 -23 -28 28 c-17 17 -23 29 -15 32 7 2 12 11 12 19 0 12 7 14 31 9 17 -3
43 -6 56 -6z m1049 -4 c8 -8 14 -17 14 -21 0 -12 -28 -35 -43 -35 -21 0 -28
38 -10 55 18 18 21 19 39 1z m104 -46 c0 -5 7 -10 16 -10 8 0 13 -4 10 -9 -3
-5 5 -12 17 -15 21 -5 24 -11 24 -56 0 -27 -2 -50 -4 -50 -9 0 -43 36 -43 47
0 6 -16 13 -37 15 -31 2 -38 8 -44 31 -4 16 -5 35 -2 43 6 16 63 20 63 4z
m-706 -25 c3 -8 12 -12 21 -9 8 3 15 1 15 -5 0 -6 -4 -11 -10 -11 -5 0 -10 -6
-10 -14 0 -9 -7 -12 -20 -9 -14 4 -20 14 -20 34 0 31 14 39 24 14z m796 5 c0
-5 -4 -10 -10 -10 -5 0 -10 5 -10 10 0 6 5 10 10 10 6 0 10 -4 10 -10z m-1020
-61 c0 -29 -4 -39 -16 -39 -13 0 -15 -7 -11 -28 4 -21 1 -33 -13 -45 -16 -13
-19 -14 -24 -1 -9 24 -26 6 -26 -27 0 -16 -4 -29 -10 -29 -5 0 -10 5 -10 10 0
16 -14 12 -38 -10 -12 -11 -33 -20 -47 -20 -22 0 -25 4 -25 38 0 20 -5 44 -10
52 -8 12 -10 11 -10 -7 0 -14 -6 -23 -15 -23 -8 0 -15 -4 -15 -10 0 -16 -30
-12 -48 7 -12 12 -13 18 -4 21 6 2 12 10 12 18 0 8 6 14 14 14 9 0 12 7 9 20
-3 11 -12 20 -20 20 -7 0 -27 14 -43 30 l-29 30 54 0 c54 0 55 0 55 -30 0 -23
5 -30 19 -30 11 0 23 -9 26 -20 5 -15 15 -20 41 -20 30 0 34 3 34 26 0 15 -8
33 -17 40 -16 12 -14 13 19 14 20 0 39 6 42 13 5 10 7 10 12 0 11 -25 74 -3
74 26 0 7 5 9 10 6 6 -3 10 -24 10 -46z m1040 41 c0 -5 -5 -10 -11 -10 -5 0
-7 5 -4 10 3 6 8 10 11 10 2 0 4 -4 4 -10z m-580 -30 c0 -5 16 -10 35 -10 28
0 35 -4 35 -20 0 -13 -7 -20 -20 -20 -11 0 -20 5 -20 10 0 6 -8 10 -18 10 -10
0 -25 9 -35 20 -16 19 -16 20 3 20 11 0 20 -4 20 -10z m360 0 c0 -5 9 -10 20
-10 11 0 20 -4 20 -10 0 -5 -13 -10 -30 -10 -23 0 -30 4 -30 20 0 11 5 20 10
20 6 0 10 -4 10 -10z m-1160 -60 c0 -5 -5 -10 -11 -10 -5 0 -7 5 -4 10 3 6 8
10 11 10 2 0 4 -4 4 -10z m1026 -45 c4 -8 13 -15 21 -15 31 0 59 -61 37 -83
-11 -11 -34 5 -34 24 0 14 -7 19 -29 19 -23 0 -30 5 -34 27 -3 16 -3 31 0 35
8 13 33 9 39 -7z m-280 -9 c14 -14 20 -46 8 -46 -11 0 -34 29 -34 44 0 20 7
20 26 2z m-208 -104 c2 -13 -3 -25 -13 -28 -20 -8 -27 -1 -31 31 -2 22 1 26
19 23 14 -2 23 -11 25 -26z m-221 -66 c-7 -19 -37 -10 -37 10 0 8 6 21 13 29
10 11 13 10 21 -5 5 -11 6 -26 3 -34z"/>
<path d="M568 4413 c-27 -7 -21 -23 7 -23 14 0 25 4 25 9 0 13 -12 18 -32 14z"/>
<path d="M730 4290 c0 -5 7 -10 15 -10 8 0 15 5 15 10 0 6 -7 10 -15 10 -8 0
-15 -4 -15 -10z"/>
<path d="M852 4284 c-21 -23 -3 -38 19 -15 10 11 19 23 19 26 0 11 -25 4 -38
-11z"/>
<path d="M130 3741 c0 -6 5 -13 10 -16 6 -3 10 1 10 9 0 9 -4 16 -10 16 -5 0
-10 -4 -10 -9z"/>
<path d="M863 5488 c2 -7 15 -12 29 -10 18 2 32 -5 46 -22 27 -35 66 -34 103
3 16 16 29 32 29 35 0 3 -16 6 -35 6 -19 0 -35 -4 -35 -10 0 -5 -6 -10 -14
-10 -8 0 -17 -6 -19 -12 -3 -7 -6 -3 -6 10 -1 20 -6 22 -52 22 -36 0 -49 -4
-46 -12z"/>
<path d="M2840 5475 c0 -14 5 -25 10 -25 6 0 10 4 10 9 0 5 3 16 6 25 4 11 1
16 -10 16 -10 0 -16 -9 -16 -25z"/>
<path d="M2925 5487 c-5 -7 -15 -22 -21 -33 -8 -12 -21 -18 -38 -17 -31 2 -36
-25 -9 -57 17 -19 17 -19 49 15 31 35 75 47 89 25 3 -5 34 -10 68 -10 54 0 65
-3 80 -24 13 -16 25 -22 42 -18 17 3 27 -1 31 -12 4 -10 18 -16 35 -16 27 0
29 -3 29 -40 0 -22 -4 -40 -10 -40 -15 0 -12 -27 3 -33 9 -3 14 -22 14 -50 1
-25 6 -54 12 -65 6 -12 11 -30 11 -41 0 -12 5 -21 10 -21 6 0 10 -13 10 -30 0
-16 5 -30 10 -30 6 0 10 -6 10 -14 0 -8 11 -34 25 -57 14 -24 25 -53 25 -64 0
-11 9 -27 20 -35 11 -8 20 -22 20 -32 0 -10 5 -18 10 -18 6 0 10 -6 10 -12 0
-16 53 -122 63 -126 4 -2 7 -12 7 -22 0 -10 6 -21 13 -24 10 -5 10 -7 0 -12
-15 -7 -17 -34 -3 -34 6 0 10 -32 10 -75 0 -43 -4 -75 -10 -75 -5 0 -10 -13
-10 -29 0 -18 -6 -31 -17 -36 -17 -6 -17 -7 0 -19 12 -10 17 -27 17 -65 0 -28
5 -51 10 -51 6 0 10 -6 10 -14 0 -24 58 -8 92 25 31 29 33 30 36 10 2 -12 8
-21 13 -21 16 0 39 -27 39 -44 0 -9 5 -16 10 -16 6 0 10 -21 10 -46 0 -65 39
-96 76 -60 17 18 18 33 2 39 -10 4 -9 8 2 16 13 10 13 12 0 22 -11 8 -12 12
-2 16 14 6 16 33 2 33 -5 0 -10 7 -10 16 0 9 -8 24 -18 33 -23 20 -33 46 -26
66 4 10 21 15 54 15 45 0 48 -2 54 -31 3 -16 13 -37 21 -45 13 -14 17 -14 32
1 18 18 20 82 3 99 -5 5 -10 32 -10 58 0 41 3 48 20 48 17 0 20 -7 20 -41 0
-44 17 -69 49 -69 12 0 21 -4 21 -10 0 -5 11 -10 25 -10 29 0 33 14 8 25 -14
6 -12 9 14 15 37 8 83 2 83 -12 0 -5 -4 -6 -10 -3 -5 3 -10 0 -10 -9 0 -8 6
-16 12 -18 9 -3 8 -10 -5 -23 -16 -15 -20 -16 -29 -4 -7 11 -11 11 -15 2 -2
-7 -11 -13 -19 -13 -8 0 -14 -6 -14 -13 0 -9 -14 -13 -42 -13 l-43 1 -3 -43
c-2 -31 1 -44 12 -48 9 -3 16 -15 16 -25 0 -11 7 -19 16 -19 17 0 44 -23 44
-38 0 -6 6 -13 13 -15 6 -3 0 -6 -15 -6 -47 -2 -77 18 -80 53 -2 24 -7 30 -22
28 -25 -5 -46 -26 -46 -47 0 -21 24 -45 44 -45 9 0 16 -4 16 -10 0 -5 15 -10
33 -10 21 0 36 -7 45 -20 19 -31 42 -25 42 10 0 26 4 30 28 30 38 0 44 8 27
34 -21 29 -19 43 14 78 24 26 33 30 57 23 16 -4 23 -10 17 -12 -20 -7 -15 -21
17 -53 24 -24 28 -33 19 -43 -7 -7 -26 -11 -43 -9 -30 4 -31 3 -30 -37 1 -29
8 -47 23 -60 11 -10 21 -28 21 -40 0 -21 26 -70 43 -82 5 -3 8 -9 8 -13 -3
-18 0 -26 9 -26 6 0 10 9 10 20 0 11 5 20 10 20 6 0 10 -4 10 -10 0 -5 20 -10
45 -10 41 0 45 2 45 25 0 24 -3 25 -55 25 l-55 0 0 64 c0 35 4 66 10 68 5 2
11 15 12 31 2 25 18 40 18 17 0 -5 7 -10 15 -10 8 0 15 5 15 10 0 15 49 12 65
-3 12 -13 19 -44 16 -74 -1 -7 -14 -13 -30 -13 -38 0 -45 -12 -20 -33 26 -23
51 -21 69 3 8 11 22 20 32 20 21 0 26 46 6 52 -15 5 13 38 31 38 6 0 11 3 11
8 0 11 -38 42 -51 42 -15 0 -39 26 -39 42 0 8 -5 19 -12 26 -9 9 -7 12 10 12
12 0 22 6 22 13 0 7 9 13 20 14 11 1 20 -1 20 -3 0 -10 -28 -34 -39 -34 -6 0
-11 -7 -11 -15 0 -9 9 -15 25 -15 14 0 25 -4 25 -10 0 -5 11 -10 25 -10 28 0
32 8 10 24 -10 7 -12 16 -5 26 7 12 12 12 34 0 24 -13 25 -14 9 -32 -15 -17
-15 -18 9 -18 15 0 29 -7 32 -17 5 -13 9 -14 19 -4 9 9 9 14 -3 21 -8 5 -15
22 -15 37 0 20 -6 29 -25 34 -24 7 -24 7 8 14 17 4 32 11 32 16 0 5 16 9 35 9
28 0 35 -4 35 -20 0 -15 7 -20 25 -20 21 0 25 5 25 30 0 23 4 30 20 30 15 0
20 7 20 25 0 14 -4 25 -10 25 -5 0 -10 14 -10 30 0 17 5 30 10 30 6 0 10 5 10
11 0 16 26 39 45 39 19 0 45 -23 45 -40 0 -6 5 -8 10 -5 6 3 10 -1 10 -9 0 -9
5 -16 10 -16 6 0 10 -9 10 -20 0 -11 -4 -20 -10 -20 -6 0 -10 -27 -10 -60 0
-33 4 -60 10 -60 6 0 10 -13 10 -30 0 -16 -4 -30 -10 -30 -5 0 -10 -20 -10
-45 0 -25 5 -45 10 -45 6 0 10 -9 10 -20 0 -11 5 -20 10 -20 6 0 10 -6 10 -14
0 -8 7 -22 15 -30 12 -12 14 -20 5 -36 -12 -23 4 -100 20 -100 6 0 10 -16 10
-35 0 -31 -3 -35 -25 -35 -14 0 -25 5 -25 10 0 6 -9 10 -20 10 -15 0 -20 7
-20 25 0 14 -4 25 -10 25 -18 0 -11 35 10 50 24 17 26 40 4 40 -19 0 -44 24
-44 41 0 20 -24 83 -37 97 -14 14 -123 17 -123 2 0 -5 -9 -10 -20 -10 -11 0
-20 7 -20 15 0 11 -7 13 -29 9 -16 -4 -32 -1 -35 5 -9 14 -56 15 -56 1 0 -5
11 -10 25 -10 20 0 25 -5 25 -26 0 -14 4 -23 10 -19 6 3 10 -1 10 -9 0 -13 10
-15 57 -12 62 5 105 -7 101 -26 -2 -7 7 -14 20 -16 14 -2 22 -10 22 -22 0 -12
13 -25 35 -36 40 -19 40 -23 -3 -30 -23 -4 -36 1 -56 21 -14 14 -34 25 -46 25
-11 0 -20 5 -20 10 0 15 -80 12 -96 -4 -16 -17 -19 -56 -4 -56 6 0 10 -5 10
-11 0 -6 -17 -9 -42 -7 l-43 3 0 -45 0 -45 43 -3 c23 -2 42 -7 42 -13 0 -5 11
-9 25 -9 31 0 32 10 1 33 -16 12 -22 25 -19 38 7 25 43 25 43 0 0 -11 9 -23
20 -26 11 -3 20 -11 20 -16 0 -5 15 -9 34 -9 20 0 36 -6 39 -14 4 -9 14 -12
27 -9 17 5 21 12 18 34 -4 29 5 39 17 19 3 -5 15 -10 26 -10 12 0 19 -7 19
-20 0 -13 7 -20 20 -20 11 0 20 -4 20 -10 0 -5 7 -10 15 -10 8 0 15 -4 15 -9
0 -5 9 -13 20 -16 14 -4 20 -15 20 -36 0 -16 -4 -29 -10 -29 -5 0 -10 5 -10
10 0 6 -9 10 -20 10 -11 0 -20 5 -20 10 0 6 -6 10 -14 10 -7 0 -19 7 -26 15
-7 8 -21 15 -31 15 -11 0 -19 5 -19 10 0 6 -20 10 -45 10 -43 0 -45 -1 -45
-30 0 -23 -5 -31 -24 -36 -32 -8 -32 -44 1 -44 31 0 99 -68 83 -84 -9 -8 -14
-8 -17 2 -3 6 -13 12 -24 12 -10 0 -19 5 -19 10 0 18 -42 10 -61 -11 l-19 -22
-33 37 c-18 20 -41 36 -50 36 -9 0 -17 5 -17 10 0 6 -11 10 -25 10 -14 0 -25
5 -25 10 0 6 -7 10 -15 10 -8 0 -17 11 -21 25 -5 20 -10 24 -31 19 -17 -5 -30
-1 -43 13 -18 20 -18 21 1 36 10 9 19 12 19 7 0 -6 7 -10 15 -10 17 0 21 56 5
62 -6 2 -12 13 -13 26 -2 27 -18 28 -37 2 -8 -11 -21 -20 -30 -20 -9 0 -22 9
-30 20 -15 21 -40 27 -40 10 0 -5 -9 -10 -19 -10 -20 0 -35 -25 -25 -41 3 -5
2 -14 -1 -19 -9 -15 -35 14 -35 39 0 16 -6 21 -25 21 -20 0 -25 -5 -25 -25 0
-16 -6 -25 -15 -25 -8 0 -15 -4 -15 -10 0 -5 11 -10 25 -10 20 0 25 -5 25 -25
0 -14 -4 -25 -8 -25 -16 0 -52 37 -52 54 0 9 -4 16 -10 16 -5 0 -12 10 -15 23
-5 18 -14 24 -43 25 -39 3 -55 12 -34 19 6 3 12 20 12 38 0 18 -6 36 -12 39
-10 5 -10 7 0 12 17 8 15 24 -4 24 -8 0 -13 4 -10 9 3 4 -3 16 -13 25 -17 15
-20 15 -45 -9 -15 -14 -36 -25 -47 -25 -22 0 -49 -22 -49 -39 0 -6 5 -11 10
-11 6 0 10 -9 10 -19 0 -18 -8 -20 -97 -20 -57 0 -99 -5 -101 -11 -5 -13 -42
-13 -42 0 0 6 -7 10 -15 10 -8 0 -15 6 -15 13 0 7 -11 23 -25 35 -24 21 -26
21 -45 5 -16 -14 -20 -30 -20 -80 0 -35 -4 -63 -10 -63 -21 0 -8 -34 25 -66
l35 -33 0 -185 c0 -117 4 -186 10 -186 6 0 10 -38 10 -95 0 -57 -4 -95 -10
-95 -6 0 -10 -37 -10 -90 0 -53 -4 -90 -10 -90 -5 0 -10 -18 -10 -41 0 -23 -7
-47 -15 -55 -10 -10 -15 -35 -15 -69 0 -30 -4 -57 -10 -60 -5 -3 -10 -35 -10
-71 0 -36 -4 -64 -10 -64 -13 0 -13 -237 0 -242 5 -1 10 -36 11 -76 1 -40 5
-74 9 -77 4 -3 11 -39 15 -81 5 -54 12 -81 26 -95 10 -10 19 -30 19 -44 0 -14
5 -25 10 -25 6 0 10 -24 10 -54 0 -30 5 -56 10 -58 6 -2 12 -22 13 -45 1 -26
7 -45 15 -48 11 -4 13 -16 7 -53 -4 -26 -10 -49 -13 -52 -10 -8 -2 -160 9
-160 5 0 9 7 9 15 0 8 5 15 10 15 6 0 10 9 10 20 0 11 5 20 10 20 6 0 10 9 10
20 0 11 4 20 9 20 15 0 18 90 4 102 -15 12 -18 114 -4 123 5 3 15 -1 23 -10
30 -33 38 -45 38 -55 0 -6 7 -18 15 -26 16 -16 49 -6 57 18 3 7 12 9 22 5 16
-6 16 -9 2 -22 -8 -8 -24 -15 -35 -15 -29 0 -27 -34 4 -68 14 -15 25 -32 25
-39 0 -7 9 -13 19 -13 11 0 23 -4 26 -10 3 -5 15 -10 26 -10 10 0 19 -4 19
-10 0 -5 14 -10 30 -10 23 0 30 -4 30 -20 0 -11 -4 -20 -10 -20 -5 0 -20 -11
-34 -25 -14 -14 -29 -25 -33 -25 -5 0 -15 -9 -23 -20 -8 -11 -22 -20 -32 -20
-10 0 -18 -6 -18 -13 0 -7 -11 -24 -25 -39 -14 -15 -25 -34 -25 -43 0 -8 -4
-15 -10 -15 -5 0 -10 -14 -10 -31 0 -18 -8 -39 -18 -48 -10 -9 -27 -31 -37
-48 -11 -18 -25 -33 -33 -33 -18 0 -42 -25 -42 -43 0 -27 -12 -47 -27 -47 -21
0 -83 -69 -83 -92 0 -10 -7 -18 -16 -18 -8 0 -13 -4 -10 -9 3 -5 -1 -11 -9
-15 -8 -3 -15 -13 -15 -22 0 -9 -8 -24 -19 -33 -10 -9 -31 -40 -47 -69 -15
-28 -32 -52 -36 -52 -4 0 -8 -20 -8 -45 0 -25 -4 -45 -10 -45 -5 0 -10 -7 -10
-16 0 -9 -11 -27 -25 -40 -14 -13 -21 -26 -15 -29 15 -9 12 -45 -4 -45 -18 0
-26 22 -26 71 0 21 -4 39 -10 39 -5 0 -10 25 -10 55 0 48 3 55 19 55 15 0 21
-8 23 -32 4 -43 22 -42 26 1 4 41 -26 101 -50 101 -14 0 -18 8 -18 43 0 31 -5
46 -20 57 -11 8 -20 20 -20 28 0 7 -7 15 -15 18 -8 4 -15 17 -15 30 0 13 -4
24 -10 24 -5 0 -10 14 -10 30 0 17 5 30 10 30 6 0 10 -4 10 -10 0 -5 7 -10 15
-10 8 0 15 -7 15 -15 0 -8 9 -20 20 -27 11 -7 20 -21 20 -30 0 -10 5 -18 10
-18 6 0 10 -9 10 -20 0 -11 5 -20 10 -20 6 0 10 -8 10 -19 0 -10 11 -27 25
-37 14 -10 25 -29 25 -41 0 -13 5 -23 10 -23 6 0 10 23 10 50 0 28 -4 50 -10
50 -5 0 -10 14 -10 30 0 17 -4 30 -10 30 -5 0 -10 9 -10 21 0 11 -7 27 -15 35
-8 9 -15 28 -15 44 0 33 -19 80 -32 80 -4 0 -8 9 -8 20 0 11 -4 20 -10 20 -5
0 -10 15 -10 33 0 34 -14 47 -67 62 -20 6 -23 3 -23 -25 0 -43 -24 -67 -48
-48 -35 28 -42 37 -42 62 0 28 5 29 73 26 l37 -2 0 44 c0 32 -5 47 -20 58 -11
8 -20 23 -20 33 0 10 -11 30 -25 45 -14 15 -25 37 -25 49 0 13 -4 23 -10 23
-5 0 -10 16 -10 35 0 19 -4 35 -10 35 -5 0 -10 9 -10 20 0 11 -7 20 -15 20 -8
0 -40 25 -70 55 -30 30 -61 55 -69 55 -8 0 -18 5 -21 10 -3 6 -15 10 -26 10
-11 0 -22 6 -24 13 -3 6 -16 13 -30 13 -32 2 -55 26 -55 58 0 22 4 26 30 26
17 0 33 7 39 18 10 16 10 16 11 0 0 -20 26 -24 33 -5 2 7 15 0 34 -20 33 -35
48 -41 56 -20 4 9 6 9 6 0 1 -7 8 -13 16 -13 9 0 15 -9 15 -25 0 -24 2 -25 65
-25 37 0 65 -4 65 -10 0 -5 11 -10 25 -10 23 0 25 4 25 45 0 25 5 45 10 45 6
0 10 7 10 15 0 9 11 26 25 39 14 13 25 31 25 40 0 9 5 16 10 16 17 0 11 22
-10 40 -27 23 -34 107 -11 119 12 7 4 19 -37 60 -50 50 -72 62 -72 40 0 -5 -4
-7 -10 -4 -5 3 -10 40 -10 81 0 43 -4 74 -10 74 -5 0 -10 -7 -10 -15 0 -8 -4
-15 -10 -15 -5 0 -10 7 -10 16 0 8 -4 12 -10 9 -5 -3 -10 -1 -10 4 0 6 5 11
10 11 6 0 10 6 10 13 0 7 9 19 20 27 11 8 20 21 20 29 0 9 -9 4 -27 -13 -14
-14 -28 -24 -31 -21 -3 2 9 18 27 34 31 29 40 51 21 51 -18 0 -11 20 8 20 16
1 16 1 0 14 -10 7 -18 18 -18 25 0 6 -4 11 -10 11 -5 0 -10 -7 -10 -15 0 -8 5
-15 10 -15 6 0 10 -4 10 -10 0 -5 -6 -10 -14 -10 -8 0 -17 -6 -19 -12 -4 -10
-6 -10 -6 0 -1 6 -8 12 -16 12 -18 0 -19 -12 -3 -28 9 -9 9 -12 0 -12 -7 0
-12 -6 -12 -14 0 -8 -6 -17 -12 -19 -10 -4 -9 -8 2 -16 8 -5 11 -13 7 -17 -7
-7 -77 64 -77 78 0 4 -8 8 -17 8 -17 1 -17 2 1 15 18 13 17 15 -10 39 -16 14
-23 26 -16 26 6 0 12 -4 12 -10 0 -15 67 -12 74 3 5 10 7 10 12 0 7 -16 34
-17 34 -3 0 6 -7 13 -15 16 -22 9 -8 23 18 19 15 -3 29 4 46 23 15 17 25 23
28 15 3 -7 16 -13 29 -13 17 0 24 6 24 20 0 11 5 20 10 20 14 0 12 27 -2 34
-10 5 -10 7 0 12 6 3 12 19 12 35 0 16 5 29 10 29 6 0 10 16 10 35 0 24 5 35
15 35 8 0 15 8 15 18 0 23 43 72 64 72 19 0 66 43 66 60 0 6 5 8 10 5 6 -3 10
-1 10 5 0 16 30 44 38 36 3 -4 0 -11 -8 -16 -12 -7 -12 -12 -3 -21 10 -10 14
-9 19 5 6 15 7 16 19 0 9 -13 14 -14 20 -4 4 7 2 16 -6 22 -11 7 -11 11 -1 15
6 2 12 11 12 18 0 7 -6 16 -12 18 -10 4 -10 6 0 6 6 1 12 7 12 15 0 8 -6 17
-12 20 -10 5 -10 7 0 12 6 3 12 21 12 39 0 18 -6 36 -12 39 -10 5 -10 7 0 12
6 3 12 21 12 39 0 18 -6 36 -12 38 -10 4 -10 8 1 15 20 14 -38 72 -73 72 -14
0 -26 5 -26 10 0 6 -7 10 -15 10 -8 0 -15 -4 -15 -10 0 -5 -5 -10 -11 -10 -5
0 -7 5 -4 11 5 7 -3 9 -21 7 -27 -3 -29 -6 -28 -45 1 -42 0 -43 -32 -43 -18 0
-35 6 -38 13 -5 10 -7 10 -12 0 -3 -7 -12 -13 -20 -13 -8 0 -14 -4 -14 -10 0
-5 -9 -10 -20 -10 -11 0 -20 5 -20 10 0 6 -18 10 -40 10 -22 0 -40 5 -40 10 0
6 -7 10 -15 10 -8 0 -15 -4 -15 -10 0 -5 -4 -10 -10 -10 -5 0 -10 16 -10 35 0
19 -4 35 -10 35 -5 0 -10 5 -10 11 0 5 5 7 10 4 6 -3 10 1 10 9 0 9 -4 16 -10
16 -5 0 -10 14 -10 30 0 17 3 30 8 30 4 0 13 10 21 21 11 18 11 23 -1 31 -10
7 -10 11 0 15 6 2 12 18 12 34 0 17 6 32 15 35 8 4 15 10 15 15 0 5 -7 9 -15
9 -8 0 -15 5 -15 10 0 6 5 10 11 10 13 0 39 25 39 38 0 6 -5 12 -12 14 -7 3 9
26 39 55 36 36 53 47 57 37 7 -18 26 -18 26 -1 0 14 82 23 100 12 15 -9 -1
-35 -21 -35 -10 0 -19 -7 -19 -15 0 -10 11 -15 35 -15 33 0 48 -14 24 -22 -17
-6 -20 -135 -3 -152 11 -12 11 -15 -3 -20 -12 -5 -13 -10 -6 -17 8 -8 21 -2
44 21 19 17 35 27 37 21 2 -6 10 -11 17 -11 7 0 15 -5 17 -12 3 -7 11 -5 26 7
26 23 20 35 -19 35 -30 0 -39 14 -16 24 10 5 10 7 0 12 -7 3 -13 12 -13 20 0
9 -4 12 -10 9 -5 -3 -10 -1 -10 4 0 6 5 11 10 11 15 0 12 19 -4 36 -17 16 -36
19 -36 4 0 -5 -6 -10 -12 -10 -7 0 4 16 25 34 20 19 37 40 37 47 0 7 3 9 7 6
3 -4 13 3 21 14 12 18 13 23 1 31 -11 7 -11 11 -1 15 8 3 12 27 12 68 0 43 4
64 13 68 20 7 21 86 2 94 -13 5 -13 7 2 18 17 13 17 14 1 20 -12 5 -18 18 -18
37 0 21 -10 39 -32 61 -21 19 -28 32 -20 34 17 6 15 33 -3 33 -8 0 -15 -8 -15
-17 0 -15 -2 -14 -14 3 -15 19 -15 19 -30 -1 -15 -19 -15 -19 -16 8 0 38 -16
34 -36 -9 -15 -32 -19 -34 -29 -20 -11 14 -17 12 -54 -24 -35 -34 -41 -46 -41
-80 0 -33 -3 -40 -20 -40 -11 0 -20 -4 -20 -10 0 -5 -7 -10 -15 -10 -8 0 -15
-7 -15 -16 0 -8 -4 -12 -10 -9 -5 3 -10 -1 -10 -9 0 -9 -4 -16 -10 -16 -5 0
-10 -9 -10 -20 0 -13 -7 -20 -19 -20 -11 0 -28 -11 -38 -24 -17 -21 -26 -23
-98 -23 -52 1 -85 6 -93 14 -7 7 -24 13 -38 13 -19 0 -24 -5 -24 -25 0 -21 -5
-25 -29 -25 -16 0 -31 6 -35 15 -4 10 -14 13 -36 9 -18 -4 -30 -2 -30 4 0 6
-12 15 -27 20 l-28 10 28 7 c29 8 35 20 15 29 -10 5 -10 7 0 12 6 3 12 15 12
26 0 28 24 48 59 48 24 0 31 4 31 20 0 11 5 20 10 20 6 0 10 32 10 75 0 67 -3
79 -25 100 -13 14 -32 25 -41 25 -26 0 -114 52 -114 67 0 8 -8 22 -17 33 -15
15 -27 17 -65 13 l-48 -6 0 -42 c0 -26 -6 -48 -15 -55 -8 -7 -15 -16 -15 -21
0 -5 7 -9 15 -9 8 0 15 -9 15 -20 0 -11 5 -20 10 -20 6 0 10 -11 10 -25 0 -14
5 -25 10 -25 6 0 10 -9 10 -19 0 -11 5 -23 10 -26 6 -3 10 1 10 10 0 9 5 15
12 13 16 -6 31 -62 18 -66 -6 -2 -10 -19 -10 -38 0 -32 2 -34 35 -34 28 0 35
-4 35 -20 0 -11 -4 -20 -10 -20 -5 0 -10 -20 -10 -45 0 -25 5 -45 10 -45 6 0
10 -11 10 -25 0 -16 13 -38 35 -59 19 -19 35 -41 35 -50 0 -9 5 -16 10 -16 6
0 10 -7 10 -15 0 -8 5 -15 10 -15 6 0 10 -13 10 -30 0 -25 4 -30 25 -30 19 0
25 -5 25 -23 0 -12 9 -29 20 -37 11 -8 20 -22 20 -32 0 -9 5 -20 10 -23 6 -3
10 -15 10 -25 0 -10 5 -20 11 -22 12 -4 22 -58 10 -58 -4 0 -17 9 -29 20 -12
11 -24 20 -27 20 -3 0 -5 -74 -5 -164 0 -154 1 -165 19 -171 11 -3 28 -26 38
-50 10 -25 21 -45 26 -45 4 0 7 -31 7 -70 0 -73 -6 -83 -30 -50 -8 11 -24 20
-36 20 -12 0 -24 5 -26 12 -3 7 -12 5 -26 -8 -26 -22 -31 -74 -6 -74 8 0 13
-4 9 -9 -3 -5 2 -16 10 -24 8 -9 15 -27 15 -41 0 -28 47 -89 61 -80 5 3 9 18
9 35 l0 29 65 0 c37 0 65 -4 65 -10 0 -5 12 -10 26 -10 14 0 23 -4 19 -10 -3
-5 -1 -10 5 -10 14 0 40 -25 40 -38 0 -6 6 -13 13 -16 10 -5 10 -7 0 -12 -7
-3 -13 -18 -13 -34 0 -32 -14 -40 -76 -40 -24 0 -44 -4 -44 -10 0 -5 -9 -10
-20 -10 -11 0 -20 -4 -20 -10 0 -6 -42 -10 -105 -10 -58 0 -105 4 -105 9 0 5
-11 12 -24 15 -13 3 -26 15 -29 26 -3 11 -12 20 -21 20 -9 0 -16 5 -16 10 0 6
-7 10 -15 10 -8 0 -15 9 -15 20 0 11 -4 20 -10 20 -5 0 -10 16 -10 35 0 23 -5
35 -14 35 -15 0 -26 21 -26 51 0 10 -7 19 -14 19 -11 0 -14 11 -13 42 1 25 -3
43 -11 46 -7 2 -12 12 -12 23 0 12 -7 19 -19 19 -10 0 -21 7 -25 15 -8 21 -26
19 -26 -2 -1 -17 -1 -17 -14 -1 -7 10 -16 15 -19 11 -4 -3 -7 18 -7 48 0 30
-4 59 -9 65 -5 5 -11 20 -13 34 -2 16 -12 27 -28 31 -14 4 -21 7 -17 8 11 1
-19 31 -31 31 -6 0 -12 6 -15 14 -4 9 -14 12 -26 9 -17 -4 -21 -13 -21 -44 0
-24 5 -39 13 -39 6 0 28 -14 47 -31 28 -25 31 -32 20 -40 -13 -8 -13 -10 0
-20 11 -8 12 -12 3 -16 -15 -6 -18 -53 -3 -53 6 0 10 -11 10 -25 0 -14 5 -25
10 -25 15 0 12 -70 -4 -86 -8 -8 -22 -14 -30 -14 -9 0 -16 -4 -16 -10 0 -5
-20 -10 -44 -10 -25 0 -46 -5 -48 -12 -5 -14 -38 -20 -38 -7 0 5 5 9 10 9 6 0
10 7 10 15 0 8 -4 15 -9 15 -5 0 -11 42 -13 94 -3 81 -6 97 -24 113 -12 10
-23 27 -25 37 -5 24 -58 44 -69 26 -6 -9 -10 -8 -17 5 -8 13 -17 16 -42 10
-17 -3 -31 -12 -31 -18 0 -8 -4 -7 -12 1 -7 7 -24 12 -38 12 -14 0 -35 7 -46
15 -10 8 -25 15 -33 15 -7 0 -22 9 -32 21 -16 19 -29 21 -113 21 -94 1 -96 0
-125 -31 -18 -19 -39 -31 -55 -31 -14 0 -29 -6 -33 -12 -4 -7 -15 -13 -23 -13
-8 0 -16 -9 -19 -20 -2 -11 -12 -28 -24 -37 -17 -15 -18 -20 -6 -35 8 -10 18
-21 24 -25 5 -4 -2 -17 -18 -30 -19 -16 -25 -30 -22 -46 2 -14 -2 -25 -10 -29
-9 -3 -15 -18 -15 -34 0 -16 -4 -29 -10 -29 -5 0 -10 -16 -10 -35 0 -19 -4
-35 -10 -35 -5 0 -10 -7 -10 -15 0 -8 5 -15 10 -15 6 0 10 -32 10 -75 0 -41 4
-75 8 -75 19 0 35 -52 34 -114 0 -50 3 -66 14 -66 20 0 17 -13 -6 -28 -12 -7
-20 -8 -20 -2 0 5 -7 10 -15 10 -18 0 -19 -12 -3 -28 9 -9 9 -12 0 -12 -7 0
-12 -14 -12 -35 0 -19 -4 -35 -10 -35 -5 0 -10 -7 -10 -15 0 -8 5 -15 11 -15
6 0 3 -8 -7 -18 -22 -21 -61 -25 -68 -6 -10 25 -26 15 -26 -17 0 -30 -19 -59
-39 -59 -6 0 -10 -3 -10 -8 4 -21 -2 -24 -15 -7 -12 17 -15 18 -30 3 -9 -9
-16 -19 -16 -23 0 -4 -8 -14 -17 -23 -12 -12 -18 -13 -21 -4 -4 14 -32 16 -32
2 0 -5 5 -10 10 -10 18 0 10 -56 -11 -79 l-21 -22 36 -35 c23 -22 36 -44 36
-60 0 -34 22 -54 58 -54 17 0 33 -6 35 -12 4 -10 8 -10 15 1 9 12 13 12 26 -2
15 -15 9 -24 -79 -111 -52 -52 -95 -89 -95 -82 0 7 -11 19 -25 26 -14 7 -25
17 -25 22 0 4 -7 8 -15 8 -20 0 -19 -17 2 -29 17 -10 17 -10 0 -11 -10 0 -16
-4 -12 -9 3 -5 1 -12 -5 -16 -5 -3 -10 1 -10 9 0 9 -8 16 -17 16 -17 1 -17 1
-1 11 10 5 18 14 18 19 0 22 -24 7 -81 -50 -50 -50 -59 -63 -49 -75 9 -11 9
-15 1 -15 -6 0 -11 -6 -11 -14 0 -8 -6 -17 -12 -19 -10 -4 -9 -8 2 -16 12 -8
10 -14 -15 -35 -19 -17 -33 -22 -39 -16 -15 15 -26 12 -26 -7 0 -12 -10 -6
-34 20 -18 20 -37 37 -41 37 -4 0 -19 -13 -34 -29 -14 -15 -36 -31 -49 -35
-25 -8 -30 -41 -7 -50 8 -3 15 -15 15 -26 0 -13 7 -20 20 -20 11 0 20 -4 20
-10 0 -5 7 -10 15 -10 8 0 15 5 15 10 0 6 12 10 28 10 16 0 35 10 47 23 l20
24 18 -24 c11 -14 29 -23 46 -23 15 0 33 -8 41 -20 8 -11 20 -20 27 -20 7 0
13 -4 13 -10 0 -5 -7 -10 -16 -10 -8 0 -12 -5 -9 -10 3 -6 -1 -10 -9 -10 -13
0 -16 -12 -17 -57 0 -32 -3 -52 -6 -45 -7 19 -20 15 -53 -17 -22 -21 -30 -37
-30 -64 0 -20 -5 -39 -10 -42 -6 -3 -10 -14 -10 -23 0 -10 -9 -24 -20 -32 -11
-8 -20 -22 -20 -32 0 -10 -10 -20 -25 -24 -27 -7 -32 -19 -13 -28 10 -5 10 -7
1 -12 -16 -7 -17 -34 -1 -34 9 0 9 -3 0 -12 -7 -7 -12 -20 -12 -30 0 -10 -7
-18 -15 -18 -8 0 -34 -18 -57 -40 -36 -34 -41 -42 -28 -51 11 -8 12 -12 3 -16
-15 -6 -17 -33 -3 -33 6 0 5 -8 -2 -19 -12 -19 -68 -27 -68 -9 0 4 -5 8 -11 8
-21 0 -39 -29 -39 -64 0 -20 -4 -36 -10 -36 -5 0 -10 -5 -10 -11 0 -6 -7 -17
-15 -26 -8 -8 -13 -19 -10 -24 4 -5 1 -9 -5 -9 -21 0 -40 -28 -40 -59 0 -17
-4 -31 -10 -31 -5 0 -10 -14 -10 -31 0 -33 -30 -74 -38 -51 -4 14 -32 17 -32
3 0 -5 5 -11 12 -13 11 -4 -19 -44 -65 -88 -17 -17 -17 -18 0 -24 17 -7 17 -8
1 -17 -22 -12 -23 -29 -3 -29 8 0 15 -3 15 -6 0 -8 -27 -34 -35 -34 -8 0 -35
-26 -35 -34 0 -3 224 -6 498 -6 478 0 572 5 572 30 0 6 43 10 100 10 55 0 100
-4 100 -9 0 -12 53 -21 64 -11 5 5 2 19 -8 34 -10 16 -16 46 -16 86 0 33 -3
60 -7 60 -5 0 -9 24 -11 53 -2 28 -7 53 -13 55 -5 2 -9 12 -9 23 0 10 -4 19
-10 19 -6 0 -10 28 -10 65 0 36 -4 65 -8 65 -5 0 -16 28 -26 63 -9 34 -22 70
-27 79 -5 10 -9 29 -9 43 0 15 -4 24 -10 20 -6 -4 -10 8 -10 29 0 19 -5 36
-10 38 -6 2 -12 43 -14 93 -3 113 -9 125 -52 125 -24 0 -34 5 -34 15 0 19 -39
20 -46 1 -6 -15 -44 -18 -44 -5 0 4 -10 9 -22 11 -18 2 -24 11 -26 36 -2 19 1
32 8 32 15 0 66 52 62 64 -4 14 19 26 51 26 43 0 77 47 47 65 -19 12 -10 35
15 41 14 3 25 11 25 17 0 5 9 0 20 -13 11 -13 20 -32 20 -42 0 -11 7 -26 15
-34 13 -13 17 -13 29 -2 20 20 30 58 15 58 -39 0 -55 123 -21 160 18 19 18 19
35 0 9 -11 17 -33 17 -49 0 -16 6 -31 13 -34 10 -3 9 -9 0 -26 -18 -29 -16
-41 9 -62 28 -25 33 -24 46 6 6 14 18 25 27 25 8 0 15 5 15 10 0 6 9 10 20 10
11 0 20 -4 20 -10 0 -5 11 -10 25 -10 14 0 25 -4 25 -9 0 -5 9 -11 21 -14 33
-9 20 -41 -19 -45 -17 -2 -32 -7 -32 -13 0 -5 -22 -9 -50 -9 -27 0 -50 -4 -50
-10 0 -5 -7 -10 -15 -10 -8 0 -15 -9 -15 -20 0 -11 -3 -20 -7 -21 -5 0 -18 -2
-30 -5 -12 -2 -23 2 -27 11 -3 8 -15 15 -26 15 -16 0 -20 -6 -20 -35 0 -19 5
-35 10 -35 6 0 10 -9 10 -19 0 -11 5 -23 10 -26 6 -3 10 0 10 8 0 20 35 57 54
57 9 0 16 5 16 10 0 14 33 13 47 -1 9 -9 16 -8 27 4 9 9 16 18 16 22 0 16 32
35 59 35 17 0 31 5 31 10 0 6 11 10 25 10 14 0 25 5 25 10 0 6 12 10 26 10 14
0 32 7 40 15 9 8 26 15 40 15 17 0 24 5 24 20 0 15 -7 20 -26 20 -14 0 -23 4
-19 10 3 5 -1 10 -9 10 -20 0 -20 7 -1 27 16 15 11 54 -6 61 -5 2 -9 10 -9 18
0 8 -4 14 -10 14 -5 0 -10 9 -10 20 0 11 -4 20 -9 20 -5 0 -11 10 -13 23 -2
17 -8 21 -30 19 -17 -2 -30 3 -37 15 -10 16 -12 16 -23 3 -11 -13 -17 -11 -40
13 -23 24 -25 29 -11 34 14 6 14 8 -3 20 -18 13 -18 15 -1 24 9 6 23 16 29 23
7 7 20 11 30 8 10 -2 18 1 18 9 0 7 3 10 6 6 3 -3 16 5 29 19 18 19 32 24 74
24 28 0 51 5 51 10 0 6 23 10 50 10 48 0 50 -1 50 -29 0 -17 6 -31 16 -35 8
-3 13 -10 10 -15 -4 -5 1 -16 9 -24 8 -9 15 -25 15 -37 0 -12 5 -18 10 -15 6
3 10 1 10 -4 0 -6 -4 -11 -10 -11 -5 0 -10 -25 -10 -55 0 -30 -4 -55 -9 -55
-16 0 -20 -41 -5 -47 13 -5 21 -43 9 -43 -3 0 -24 18 -45 40 -33 34 -40 48
-40 80 0 22 -4 40 -10 40 -5 0 -10 9 -10 20 0 12 -7 20 -16 20 -26 0 -14 -108
14 -131 16 -12 22 -28 22 -58 0 -23 5 -41 10 -41 6 0 10 -13 10 -30 0 -24 4
-30 21 -30 24 0 49 22 49 44 0 9 5 16 10 16 6 0 10 -4 10 -10 0 -5 16 -10 35
-10 19 0 35 5 35 10 0 14 74 12 89 -3 11 -9 14 -9 18 1 7 19 23 14 23 -8 0
-11 -7 -20 -16 -20 -8 0 -30 -16 -48 -35 -18 -19 -35 -32 -38 -29 -8 8 -58 -7
-58 -17 0 -5 41 -9 90 -9 53 0 90 -4 90 -10 0 -5 -4 -10 -10 -10 -5 0 -10 -9
-10 -20 0 -13 -9 -22 -25 -26 -14 -3 -25 -10 -25 -15 0 -5 -7 -9 -16 -9 -18 0
-44 -23 -44 -39 0 -16 20 -13 26 4 7 17 104 22 104 5 0 -5 -9 -10 -20 -10 -15
0 -20 -7 -20 -25 0 -21 5 -25 30 -25 17 0 30 -4 30 -10 0 -5 -4 -10 -10 -10
-5 0 -10 -4 -10 -10 0 -5 7 -10 15 -10 8 0 15 5 15 10 0 6 8 5 20 -2 11 -7 20
-19 20 -26 0 -7 5 -10 10 -7 6 3 10 -1 10 -9 0 -9 8 -16 17 -16 15 0 15 -2 -2
-14 -18 -13 -17 -15 18 -49 32 -30 35 -36 20 -42 -17 -6 -17 -7 2 -22 14 -11
16 -17 8 -20 -7 -3 -13 -11 -13 -18 0 -7 6 -16 13 -18 9 -4 9 -6 0 -6 -20 -1
-15 -22 9 -42 11 -11 18 -22 14 -26 -4 -4 -11 -1 -15 6 -5 7 -14 12 -21 9 -9
-3 -8 -9 4 -21 10 -9 13 -17 7 -17 -15 0 -14 -30 2 -30 7 -1 6 -5 -5 -13 -15
-12 -14 -15 8 -36 18 -17 24 -19 24 -8 0 8 -6 18 -12 21 -10 5 -10 7 0 12 14
6 16 31 3 36 -4 2 0 12 10 22 17 17 19 18 19 3 0 -9 5 -17 12 -17 9 0 9 -3 0
-12 -7 -7 -12 -37 -12 -67 l0 -55 -34 37 c-35 39 -51 45 -59 25 -4 -10 -6 -10
-6 0 -1 7 -14 12 -32 12 -39 0 -59 20 -59 59 0 21 -5 31 -16 31 -8 0 -12 5 -9
10 3 6 1 10 -6 10 -6 0 -18 8 -25 18 -11 15 -13 15 -19 1 -5 -12 -16 -6 -55
32 -28 27 -50 57 -50 69 0 13 -7 20 -20 20 -24 0 -70 42 -70 64 0 8 -4 18 -10
21 -5 3 -10 13 -10 21 0 15 -23 44 -35 44 -4 0 -13 7 -22 16 -14 14 -14 16 3
29 18 14 17 15 -11 13 -33 -2 -75 17 -75 33 0 26 -31 39 -89 39 -34 0 -61 -4
-61 -10 0 -5 -7 -10 -15 -10 -8 0 -15 -4 -15 -10 0 -5 -18 -10 -39 -10 -22 0
-41 -5 -43 -12 -7 -20 3 -148 12 -148 4 0 8 -37 9 -82 1 -46 6 -84 12 -86 5
-2 9 -30 9 -63 0 -33 4 -59 10 -59 6 0 10 -35 10 -85 0 -50 4 -85 10 -85 6 0
10 -14 10 -30 0 -17 7 -47 15 -67 8 -19 15 -61 15 -92 0 -45 4 -60 20 -71 14
-10 20 -26 20 -53 0 -21 6 -45 14 -53 17 -16 72 -19 81 -4 3 6 48 10 101 10
56 0 94 4 94 10 0 6 9 10 19 10 11 0 22 4 25 9 3 5 34 11 68 13 35 3 64 10 66
16 2 7 25 12 58 12 30 0 54 5 54 10 0 6 25 10 55 10 30 0 55 5 55 10 0 6 6 10
14 10 7 0 34 11 59 25 25 14 62 26 83 27 40 1 81 27 56 36 -8 2 -12 31 -12 93
0 53 -4 89 -10 89 -5 0 -10 9 -10 20 0 11 -4 20 -8 20 -8 0 -27 88 -38 178 -3
23 -10 42 -15 42 -5 0 -9 23 -9 50 0 28 -4 50 -10 50 -5 0 -10 23 -10 50 0 28
3 50 6 50 14 0 34 -31 34 -54 0 -14 4 -28 10 -31 5 -3 10 -23 10 -44 0 -20 7
-46 15 -57 8 -10 15 -36 15 -56 0 -21 5 -38 10 -38 6 0 10 -16 10 -35 0 -19 5
-35 10 -35 6 0 10 -20 10 -45 0 -25 5 -45 10 -45 6 0 10 -15 10 -34 0 -19 7
-41 15 -50 8 -8 15 -26 15 -40 0 -14 5 -28 10 -31 6 -3 10 -24 10 -46 0 -21 5
-39 10 -39 6 0 10 -11 10 -25 0 -14 5 -25 10 -25 6 0 10 20 10 45 0 25 -4 45
-10 45 -5 0 -10 20 -10 45 0 25 -4 45 -10 45 -5 0 -10 24 -10 54 0 30 -4 56
-10 58 -5 2 -11 27 -12 55 -2 29 -6 53 -10 53 -5 0 -8 15 -8 33 -1 17 -7 43
-15 57 -8 14 -14 40 -15 58 0 17 -4 32 -10 32 -5 0 -10 25 -10 55 0 30 -4 55
-10 55 -5 0 -10 14 -10 30 0 17 5 30 10 30 6 0 10 -9 10 -20 0 -11 5 -20 10
-20 6 0 10 -9 10 -20 0 -11 5 -20 10 -20 6 0 10 -14 10 -31 0 -17 5 -40 11
-51 10 -19 21 -72 36 -171 3 -20 9 -40 14 -43 5 -3 9 -23 9 -45 0 -21 5 -39
10 -39 6 0 10 -16 10 -35 0 -19 5 -35 10 -35 6 0 10 -13 10 -29 0 -16 7 -34
15 -41 8 -7 15 -21 15 -32 0 -11 6 -26 14 -34 17 -16 56 -19 56 -4 0 6 28 10
65 10 37 0 65 4 65 10 0 6 20 10 45 10 25 0 56 6 68 14 12 8 53 16 90 18 56 2
71 -1 82 -15 8 -11 26 -17 49 -17 20 0 36 -4 36 -10 0 -5 11 -10 25 -10 14 0
25 -4 25 -9 0 -5 29 -11 65 -13 l65 -3 0 45 c0 25 5 52 10 60 6 10 10 11 10 3
0 -7 6 -13 13 -13 8 0 18 -24 25 -60 7 -33 17 -60 22 -60 6 0 10 -9 10 -20 0
-11 5 -20 10 -20 6 0 10 -12 10 -27 0 -16 7 -37 15 -47 8 -10 12 -23 9 -27 -3
-5 1 -9 10 -9 8 0 17 6 20 13 5 10 7 10 12 0 7 -15 44 -17 44 -3 0 6 8 10 18
10 26 1 52 25 52 49 0 11 -4 21 -10 21 -5 0 -10 9 -10 20 0 11 5 20 10 20 6 0
10 7 10 15 0 8 -4 15 -10 15 -6 0 -10 38 -10 95 0 57 4 95 10 95 6 0 10 7 10
15 0 8 -4 15 -10 15 -5 0 -10 25 -10 55 0 48 2 55 20 55 18 0 20 -7 20 -64 0
-36 5 -68 10 -71 6 -3 10 -15 10 -26 0 -10 -4 -19 -10 -19 -13 0 -13 -77 0
-85 6 -3 10 -24 10 -46 0 -26 5 -42 15 -45 8 -4 15 -14 15 -25 0 -19 -39 -64
-62 -71 -17 -6 14 -38 37 -38 9 0 18 -12 22 -30 7 -39 23 -39 23 0 0 27 3 30
31 30 33 0 59 -19 59 -44 0 -9 5 -16 10 -16 6 0 10 13 10 30 l0 29 144 0 c105
1 146 -3 149 -12 4 -9 7 -9 18 1 17 16 346 17 351 2 2 -7 47 -11 116 -12 61
-1 112 -5 112 -10 0 -4 21 -8 46 -8 25 0 87 -5 137 -11 51 -6 117 -9 147 -7
l55 3 -34 18 c-19 9 -49 17 -67 17 -18 0 -36 5 -39 10 -3 6 -40 10 -81 10 -43
0 -74 4 -74 10 0 14 -56 12 -81 -2 -17 -10 -23 -10 -26 0 -3 7 -23 12 -49 12
l-44 0 0 70 c0 40 -4 70 -10 70 -15 0 -12 57 3 63 10 4 10 7 0 18 -7 7 -13 36
-13 64 -1 27 -7 61 -15 75 -8 14 -14 35 -15 48 0 12 -4 22 -10 22 -5 0 -10 18
-10 40 0 22 -4 40 -10 40 -5 0 -10 16 -10 35 0 19 -4 35 -10 35 -5 0 -10 16
-10 35 0 24 -5 35 -15 35 -12 0 -15 -13 -15 -59 0 -40 5 -63 15 -71 9 -7 15
-29 15 -51 0 -21 5 -41 10 -44 6 -3 10 -22 10 -41 0 -19 5 -34 10 -34 6 0 10
-27 10 -60 0 -33 4 -60 10 -60 6 0 10 -29 10 -66 0 -46 5 -70 16 -81 9 -9 14
-28 12 -47 -3 -27 -7 -31 -35 -34 -20 -2 -33 1 -33 8 0 8 -10 9 -32 4 -48 -11
-118 -13 -118 -3 0 4 -12 8 -27 8 -52 1 -128 13 -137 22 -16 14 -300 11 -314
-3 -10 -10 -17 -10 -32 0 -24 14 -70 16 -70 2 0 -15 -39 -12 -56 4 -12 12 -14
71 -14 340 0 211 4 326 10 326 6 0 10 -9 10 -20 0 -11 5 -20 10 -20 6 0 10
-93 10 -260 l0 -259 31 -32 c23 -24 33 -28 39 -19 10 16 138 14 158 -2 10 -9
16 -8 24 3 7 11 11 11 15 2 6 -15 73 -18 73 -3 0 6 32 10 75 10 43 0 75 -4 75
-10 0 -5 11 -10 25 -10 14 0 25 5 25 10 0 6 9 10 20 10 11 0 20 -4 20 -10 0
-6 37 -10 90 -10 89 0 90 0 90 25 0 14 -4 25 -10 25 -5 0 -10 25 -10 55 0 30
-4 55 -10 55 -5 0 -10 24 -10 53 -1 28 -7 70 -15 92 -8 22 -15 64 -15 93 0 28
-4 52 -10 52 -6 0 -10 28 -10 65 0 37 -4 65 -10 65 -5 0 -10 23 -10 51 0 28
-6 56 -13 64 -8 8 -13 33 -11 68 1 40 -2 57 -12 61 -8 3 -14 12 -14 21 0 32
-21 51 -51 47 -17 -3 -29 0 -29 7 0 6 -7 11 -15 11 -18 0 -20 19 -2 25 6 2 35
6 64 9 46 6 52 4 58 -14 6 -19 45 -29 45 -11 0 5 9 11 20 14 13 3 20 0 20 -9
0 -8 10 -14 25 -14 14 0 25 -4 25 -10 0 -6 37 -10 90 -10 53 0 90 4 90 10 0 6
13 10 29 10 17 0 32 4 35 9 3 4 -41 11 -97 15 -56 4 -103 11 -105 17 -2 5 -28
9 -58 9 -30 0 -54 5 -54 10 0 6 -7 10 -16 10 -29 0 -44 27 -44 79 0 28 4 51 8
51 11 0 32 -46 32 -70 0 -13 7 -20 20 -20 11 0 20 -4 20 -10 0 -13 217 -13
225 0 3 6 19 10 34 10 15 0 31 4 37 9 5 6 32 13 59 17 28 3 53 11 57 17 4 6
10 -1 13 -16 4 -15 12 -27 17 -27 5 0 9 -17 8 -37 -3 -65 -1 -73 20 -73 20 0
20 7 20 280 0 180 -4 280 -10 280 -5 0 -10 11 -10 24 0 19 -4 23 -20 19 -26
-7 -26 8 0 27 24 17 25 26 5 47 -20 19 -32 9 -15 -12 9 -11 9 -15 1 -15 -15 0
-41 -25 -41 -38 0 -6 -6 -13 -12 -15 -10 -4 -9 -8 2 -17 11 -9 12 -13 3 -17
-15 -5 -18 -33 -4 -33 4 0 17 11 27 25 26 35 31 32 30 -17 -1 -32 -5 -44 -18
-46 -11 -2 -18 3 -18 12 0 11 -9 16 -31 16 -33 0 -59 19 -59 44 0 12 -11 16
-45 16 -41 0 -45 2 -45 25 0 16 -6 25 -15 25 -8 0 -15 9 -15 20 0 11 -5 20
-11 20 -5 0 -7 5 -4 10 3 6 -1 10 -9 10 -20 0 -20 7 -2 26 8 8 28 14 45 14 37
0 39 13 6 45 -27 28 -40 31 -49 13 -5 -10 -7 -10 -12 0 -3 6 -19 12 -35 12
-16 0 -29 5 -29 10 0 14 -27 12 -34 -2 -5 -10 -7 -10 -12 0 -3 6 -21 12 -40
12 -19 0 -34 5 -34 11 0 18 -29 41 -48 37 -9 -2 -17 -10 -17 -19 0 -19 -70
-89 -89 -89 -7 0 -16 -7 -20 -15 -3 -8 -15 -15 -26 -15 -11 0 -20 -2 -20 -5 0
-11 66 -75 77 -75 7 0 13 -7 13 -16 0 -8 4 -13 9 -9 6 3 26 -10 45 -30 19 -19
40 -35 46 -35 5 0 10 -4 10 -8 0 -5 21 -19 46 -31 25 -13 63 -41 85 -62 22
-21 45 -39 52 -39 7 0 19 -9 27 -20 8 -11 23 -20 34 -20 22 0 45 -27 46 -52 0
-10 5 -18 10 -18 6 0 10 -4 10 -10 0 -5 -18 -10 -40 -10 -22 0 -40 5 -40 10 0
6 -7 10 -15 10 -8 0 -15 -7 -15 -16 0 -18 -23 -44 -39 -44 -6 0 -11 5 -11 10
0 6 -13 10 -30 10 -16 0 -30 5 -30 10 0 6 -11 10 -25 10 -14 0 -25 -4 -25 -10
0 -18 -35 -11 -48 10 -7 12 -8 20 -2 20 5 0 10 5 10 11 0 16 -29 41 -40 34
-15 -9 -12 -25 6 -25 8 0 13 -4 10 -9 -9 -14 -59 1 -84 26 l-24 24 21 18 c12
10 21 22 21 25 0 17 -31 36 -59 36 -26 0 -31 -4 -31 -25 0 -18 -5 -25 -20 -25
-16 0 -20 7 -20 33 0 21 -7 38 -20 47 -14 10 -20 25 -19 50 1 19 3 27 6 18 5
-19 33 -25 33 -7 0 6 -15 25 -34 43 -31 31 -32 34 -15 44 11 7 20 8 24 2 9
-15 25 -12 25 5 0 8 -5 15 -12 15 -9 0 -9 3 0 12 21 21 13 28 -33 28 -25 0
-45 -4 -45 -10 0 -5 -9 -10 -19 -10 -11 0 -22 -9 -26 -19 -3 -11 -15 -23 -26
-26 -10 -4 -19 -11 -19 -16 0 -5 -15 -9 -34 -9 -19 0 -36 -5 -38 -12 -3 -9 -6
-9 -12 0 -4 7 -2 12 3 12 6 0 11 7 11 15 0 8 10 20 23 26 12 7 29 20 38 31 9
10 21 18 28 18 6 0 11 5 11 10 0 6 5 10 11 10 17 0 69 57 69 75 0 21 -6 19
-42 -15 -17 -16 -39 -30 -49 -30 -14 0 -19 -7 -19 -25 0 -18 -5 -25 -20 -25
-11 0 -20 -4 -20 -10 0 -5 -11 -10 -25 -10 -14 0 -25 2 -25 5 0 4 26 33 58 65
85 89 102 108 102 120 0 6 24 10 55 10 30 0 55 5 55 10 0 6 7 10 16 10 14 0
74 51 74 64 0 3 -11 6 -25 6 -14 0 -25 5 -25 10 0 6 -9 10 -20 10 -13 0 -20 7
-20 20 0 18 7 20 75 22 41 0 80 1 85 2 6 1 11 -3 12 -9 4 -24 30 -35 82 -35
31 0 56 5 56 10 0 6 -10 10 -23 10 -12 0 -34 11 -49 25 -15 14 -39 25 -53 25
-14 0 -25 5 -25 10 0 6 -8 10 -17 10 -13 0 -14 3 -5 12 7 7 12 20 12 30 0 19
34 25 45 8 11 -18 25 -10 25 14 0 13 -6 27 -12 30 -10 5 -10 7 0 12 6 3 12 14
12 24 0 10 8 21 17 24 13 5 14 9 3 19 -10 9 -13 9 -17 0 -13 -35 -23 -4 -23
68 0 82 11 109 43 109 9 0 17 14 21 34 6 31 10 35 43 38 34 3 36 4 20 20 -10
9 -17 32 -17 52 0 33 2 36 30 36 17 0 30 -4 30 -10 0 -5 11 -10 25 -10 14 0
25 -4 25 -10 0 -5 -9 -10 -20 -10 -11 0 -20 -7 -20 -15 0 -8 9 -15 20 -15 11
0 20 5 20 10 0 6 5 10 10 10 6 0 10 -9 10 -20 0 -11 7 -20 15 -20 8 0 15 -4
15 -10 0 -5 5 -10 10 -10 30 0 -2 70 -32 70 -8 1 -6 6 6 15 20 15 20 15 0 30
-17 13 -17 14 -1 15 14 0 17 9 17 45 l0 45 40 0 c22 0 40 -4 40 -10 0 -5 -4
-10 -10 -10 -5 0 -10 -7 -10 -16 0 -8 5 -12 10 -9 6 3 10 0 10 -9 0 -8 6 -17
13 -19 9 -4 8 -8 -3 -16 -13 -10 -13 -12 0 -20 12 -8 11 -13 -8 -29 -22 -20
-31 -62 -12 -62 6 0 10 -9 10 -20 0 -13 -7 -20 -20 -20 -11 0 -20 -6 -20 -13
0 -7 9 -19 20 -27 11 -8 20 -22 20 -32 0 -24 -9 -23 -31 4 -11 11 -22 18 -26
15 -3 -4 4 -15 15 -26 12 -10 22 -28 22 -40 0 -26 -8 -27 -26 -3 -13 16 -13
16 -14 0 0 -10 5 -18 10 -18 6 0 10 -8 10 -18 0 -10 9 -24 20 -32 11 -8 20
-18 20 -22 0 -4 -9 -8 -20 -8 -11 0 -20 5 -20 10 0 6 -4 10 -10 10 -5 0 -10
-7 -10 -15 0 -8 5 -15 10 -15 6 0 10 -9 10 -20 0 -13 7 -20 20 -20 11 0 20 -4
20 -10 0 -5 -9 -10 -20 -10 -11 0 -20 -4 -20 -10 0 -5 5 -10 10 -10 6 0 10 -6
10 -14 0 -8 6 -17 13 -19 6 -3 2 -6 -10 -6 -13 -1 -28 8 -35 19 -12 19 -38 28
-38 12 0 -4 16 -21 35 -37 20 -18 35 -39 35 -52 0 -13 4 -23 9 -23 5 0 11 -9
14 -20 3 -14 14 -20 31 -20 17 0 39 -13 62 -35 21 -21 44 -35 59 -35 18 0 25
-5 25 -20 0 -13 7 -20 20 -20 22 0 70 -41 70 -60 0 -6 5 -8 10 -5 6 3 10 -1
10 -9 0 -10 9 -16 26 -16 14 0 23 -4 19 -9 -3 -5 6 -21 20 -35 14 -14 25 -28
25 -31 0 -10 28 -35 39 -35 16 0 51 -38 51 -55 0 -8 5 -15 10 -15 6 0 10 -16
10 -35 0 -19 5 -35 10 -35 6 0 10 -8 10 -18 0 -15 -6 -18 -31 -14 -17 2 -36
13 -42 23 -7 12 -23 19 -42 19 -19 0 -36 8 -45 20 -15 21 -40 27 -40 10 0 -5
-4 -10 -10 -10 -5 0 -10 11 -10 25 0 14 -4 25 -10 25 -5 0 -10 9 -10 20 0 11
-4 20 -10 20 -6 0 -11 -57 -12 -147 -2 -218 -4 -254 -15 -293 -5 -19 -11 -83
-12 -142 l-2 -108 70 0 c41 0 71 4 71 10 0 17 169 13 186 -4 32 -33 2 -56 -75
-56 -59 0 -153 -20 -163 -34 -5 -8 -14 -7 -28 2 -11 6 -30 12 -42 12 -12 0
-33 12 -46 27 -18 22 -25 24 -32 14 -10 -17 -101 -16 -111 1 -6 9 -12 8 -25
-3 -14 -11 -47 -13 -160 -11 -94 2 -144 -1 -149 -8 -3 -6 5 -31 19 -56 18 -32
26 -61 26 -95 0 -27 5 -49 10 -49 6 0 10 -18 10 -39 0 -22 5 -43 10 -46 6 -3
10 -24 10 -45 0 -21 5 -40 10 -42 6 -2 13 -17 16 -33 3 -17 9 -31 15 -33 5 -2
9 -24 9 -48 0 -24 5 -44 10 -44 6 0 10 -33 10 -80 0 -47 4 -80 10 -80 6 0 10
-34 10 -81 0 -56 4 -85 14 -95 18 -17 72 -19 79 -1 4 9 7 9 14 0 5 -7 53 -13
133 -16 69 -2 135 -8 146 -11 26 -9 39 16 23 46 -8 15 -7 22 6 32 15 11 14 14
-9 31 -21 16 -26 28 -26 62 0 36 3 43 20 43 13 0 20 -7 20 -19 0 -11 5 -23 10
-26 6 -3 10 -26 10 -50 0 -25 6 -50 15 -59 8 -8 15 -22 15 -30 0 -9 5 -16 10
-16 6 0 10 -11 10 -25 0 -14 5 -25 10 -25 6 0 10 -7 10 -15 0 -8 10 -26 22
-40 21 -24 26 -25 144 -25 113 0 122 1 127 20 3 11 12 20 21 20 14 0 16 31 16
290 0 169 -4 290 -9 290 -5 0 -11 -6 -13 -12 -3 -9 -9 -8 -21 4 -13 12 -17 35
-17 87 0 41 -4 71 -10 71 -5 0 -10 20 -10 45 0 25 5 45 10 45 6 0 10 20 10 44
0 26 5 47 13 50 10 5 10 7 0 12 -7 3 -13 12 -13 19 0 7 -6 16 -12 18 -10 4
-10 6 0 6 14 1 17 51 2 51 -6 0 -10 64 -10 173 0 103 -4 177 -10 183 -7 7 -3
17 10 32 11 11 20 28 20 36 0 8 6 16 12 18 8 3 11 20 9 46 -1 25 2 42 8 42 6
0 11 -13 11 -30 0 -16 4 -30 9 -30 6 0 10 75 10 185 1 178 0 185 -19 185 -13
0 -20 -7 -20 -20 0 -11 -3 -20 -6 -20 -12 0 -34 29 -34 45 0 9 -9 19 -20 22
-24 6 -27 43 -4 43 27 0 44 27 44 69 0 23 5 41 10 41 6 0 10 17 10 38 0 21 5
43 12 50 9 9 9 15 0 24 -7 7 -12 25 -12 40 0 15 -4 28 -10 28 -5 0 -10 14 -10
30 0 17 5 30 10 30 6 0 10 7 10 15 0 8 -4 15 -10 15 -5 0 -10 14 -10 30 0 17
5 30 10 30 6 0 10 16 10 35 0 19 4 35 9 35 5 0 12 15 17 32 9 39 17 1154 9
1216 -4 27 -11 42 -21 42 -8 0 -14 -4 -14 -10 0 -18 -31 -10 -56 15 -15 15
-22 30 -18 37 5 7 7 50 6 95 -1 61 2 86 13 97 9 9 15 34 15 63 0 27 5 54 12
61 9 9 9 12 0 12 -8 0 -12 19 -12 56 0 46 4 60 22 76 15 13 19 21 11 26 -7 4
-11 50 -12 125 l-1 117 30 6 30 7 0 73 c0 43 -4 74 -10 74 -5 0 -10 9 -10 20
0 11 5 20 10 20 13 0 13 450 0 484 -5 15 -6 28 0 31 5 3 9 46 9 94 0 83 -1 89
-20 84 -12 -4 -19 -14 -19 -30 0 -37 -24 -55 -67 -51 -36 3 -38 5 -41 41 -2
20 -7 37 -13 37 -5 0 -9 11 -9 25 0 14 5 25 10 25 6 0 10 5 10 10 0 15 -107
13 -114 -2 -5 -10 -7 -10 -12 0 -7 16 -944 18 -944 2 0 -5 -13 -10 -30 -10
-16 0 -30 5 -30 10 0 6 -93 10 -260 10 -167 0 -260 -4 -260 -10 0 -5 -18 -10
-40 -10 -22 0 -40 5 -40 10 0 16 -682 13 -695 -3z m800 -17 c3 -5 1 -10 -4
-10 -6 0 -11 5 -11 10 0 6 2 10 4 10 3 0 8 -4 11 -10z m445 -2 c0 -4 -4 -8
-10 -8 -5 0 -10 -16 -10 -35 0 -19 -4 -35 -10 -35 -5 0 -10 16 -10 35 0 19 -4
35 -10 35 -5 0 -10 4 -10 8 0 5 14 9 30 9 17 0 30 -4 30 -9z m139 -10 c12 -15
11 -18 -3 -18 -10 0 -16 8 -16 22 0 12 1 19 3 17 1 -2 9 -12 16 -21z m205 16
c10 -4 16 -18 16 -35 0 -22 -5 -29 -19 -29 -26 0 -34 15 -27 46 7 26 7 27 30
18z m106 -10 c0 -2 -12 -4 -26 -4 -14 0 -23 4 -20 9 6 8 46 4 46 -5z m-562
-19 c12 -3 22 -13 22 -21 0 -8 5 -14 10 -14 6 0 22 -11 36 -25 l25 -25 -21
-22 c-11 -12 -20 -16 -20 -9 0 21 -27 41 -56 41 -27 0 -74 42 -74 67 0 22 22
24 78 8z m672 -40 c0 -14 -9 -35 -20 -47 -16 -17 -22 -19 -35 -8 -32 26 -15
80 26 80 24 0 29 -4 29 -25z m550 -44 c17 -15 30 -36 30 -45 0 -9 8 -16 20
-16 11 0 20 5 20 10 0 6 5 10 10 10 6 0 10 -18 10 -40 0 -22 -4 -40 -10 -40
-5 0 -10 -11 -10 -25 0 -27 -14 -34 -23 -11 -4 9 -14 12 -26 9 -24 -6 -28 -23
-6 -23 8 0 15 -6 15 -13 0 -7 9 -19 20 -27 11 -8 15 -17 10 -20 -5 -3 -12 -25
-15 -49 -8 -66 -16 -91 -29 -91 -6 0 -18 -9 -26 -20 -8 -12 -26 -20 -42 -20
-24 0 -28 4 -28 30 0 17 -7 33 -17 39 -17 10 -17 10 0 11 9 0 17 7 17 15 0 8
-7 15 -16 15 -8 0 -12 5 -9 10 3 6 1 10 -5 10 -6 0 -21 10 -34 23 -13 12 -32
27 -42 33 -15 10 -16 15 -7 25 10 10 16 9 31 -4 20 -18 51 -14 53 7 1 6 0 41
-1 78 -2 66 -1 69 37 107 21 22 39 40 41 40 1 1 16 -12 32 -28z m-1930 -1 c0
-10 8 -22 38 -55 16 -18 15 -20 -4 -40 -15 -15 -18 -15 -35 4 -11 11 -19 29
-19 41 0 11 -4 20 -10 20 -5 0 -10 9 -10 20 0 13 7 20 20 20 11 0 20 -5 20
-10z m910 -35 c0 -29 -23 -33 -47 -9 -14 13 -14 17 -2 25 27 17 49 10 49 -16z
m-394 1 c16 -17 19 -46 4 -46 -15 0 -12 -39 4 -56 18 -17 33 -18 39 -1 2 7 15
0 34 -20 17 -18 36 -33 42 -33 6 0 11 -7 11 -15 0 -9 9 -15 25 -15 14 0 37
-11 51 -25 22 -22 23 -27 10 -40 -17 -17 -30 -20 -21 -5 11 18 -15 11 -37 -10
-13 -12 -34 -20 -52 -19 -17 1 -23 3 -13 6 21 5 23 33 2 33 -8 0 -15 -4 -15
-10 0 -5 -4 -10 -10 -10 -5 0 -10 9 -10 20 0 11 -4 20 -10 20 -5 0 -10 16 -10
35 0 35 0 35 -45 35 l-45 0 0 54 c0 34 -5 56 -12 58 -8 3 -4 14 12 31 30 31
28 30 46 13z m794 4 c0 -5 -2 -10 -4 -10 -3 0 -8 5 -11 10 -3 6 -1 10 4 10 6
0 11 -4 11 -10z m265 0 c-3 -5 -12 -7 -20 -3 -21 7 -19 13 6 13 11 0 18 -4 14
-10z m45 0 c0 -5 -2 -10 -4 -10 -3 0 -8 5 -11 10 -3 6 -1 10 4 10 6 0 11 -4
11 -10z m-1040 -20 c0 -5 -4 -10 -10 -10 -5 0 -10 5 -10 10 0 6 5 10 10 10 6
0 10 -4 10 -10z m440 0 c0 -5 -2 -10 -4 -10 -3 0 -8 5 -11 10 -3 6 -1 10 4 10
6 0 11 -4 11 -10z m-840 -35 c0 -14 5 -25 10 -25 6 0 10 -13 10 -30 0 -25 -4
-30 -24 -30 -25 0 -92 56 -74 62 5 2 10 13 11 26 1 18 7 22 34 22 29 0 33 -3
33 -25z m1110 6 c0 -10 -7 -21 -15 -25 -11 -4 -14 -13 -9 -31 8 -31 -17 -54
-58 -55 -24 0 -28 4 -28 30 0 23 4 30 20 30 21 0 28 24 10 35 -5 3 -10 13 -10
21 0 10 12 14 45 14 37 0 45 -3 45 -19z m290 -10 c0 -17 -4 -33 -10 -36 -5 -3
-10 0 -10 9 0 8 -5 16 -11 18 -14 5 0 38 17 38 9 0 14 -11 14 -29z m90 25 c0
-3 -4 -8 -10 -11 -5 -3 -10 -1 -10 4 0 6 5 11 10 11 6 0 10 -2 10 -4z m-954
-111 c-8 -8 -20 -15 -26 -15 -17 0 -40 26 -40 45 0 8 -6 18 -14 21 -12 5 -12
8 2 23 16 16 19 15 55 -21 33 -34 36 -41 23 -53z m969 85 c3 -5 1 -10 -4 -10
-6 0 -11 5 -11 10 0 6 2 10 4 10 3 0 8 -4 11 -10z m-718 -26 c-3 -3 -12 -4
-19 -1 -8 3 -5 6 6 6 11 1 17 -2 13 -5z m523 -4 c0 -5 9 -10 20 -10 24 0 26
-25 5 -47 -14 -14 -18 -12 -39 12 -19 22 -21 31 -13 41 14 16 27 18 27 4z
m-1200 -30 c0 -11 4 -20 9 -20 5 0 11 -10 13 -22 4 -29 48 -39 48 -11 1 17 2
17 16 -2 12 -16 16 -17 24 -6 22 36 90 7 90 -38 0 -23 -21 -51 -38 -51 -6 0
-13 -6 -15 -12 -3 -7 -6 2 -6 20 -1 32 -23 45 -35 20 -5 -10 -7 -10 -12 0 -3
6 -12 12 -20 12 -9 0 -12 -5 -9 -11 4 -6 4 -30 0 -54 l-6 -45 -30 31 c-24 25
-29 38 -29 79 0 28 -4 50 -10 50 -5 0 -10 18 -10 40 0 22 5 40 10 40 6 0 10
-9 10 -20z m1020 -31 c0 -46 -4 -55 -36 -84 -19 -18 -31 -36 -26 -39 17 -10 1
-46 -20 -46 -12 0 -29 -10 -40 -22 -15 -18 -21 -20 -27 -9 -12 18 -31 5 -31
-21 0 -14 -5 -18 -15 -15 -8 4 -17 2 -20 -3 -9 -15 -42 -12 -48 4 -7 18 28 46
58 46 14 0 25 5 25 10 0 6 11 10 25 10 14 0 25 5 25 10 0 6 -4 10 -10 10 -5 0
-10 11 -10 25 0 14 5 25 10 25 6 0 10 16 10 36 0 35 1 36 31 32 20 -3 33 0 36
9 3 7 14 13 24 13 14 0 19 7 19 30 0 17 5 30 10 30 6 0 10 -23 10 -51z m400
21 c0 -23 -4 -30 -20 -30 -11 0 -20 5 -20 10 0 6 5 10 10 10 6 0 10 9 10 20 0
11 5 20 10 20 6 0 10 -13 10 -30z m-800 -45 c0 -28 -4 -35 -20 -35 -11 0 -20
7 -20 15 0 8 -5 15 -10 15 -6 0 -5 8 2 20 7 11 21 20 30 20 14 0 18 -8 18 -35z
m140 28 c0 -10 -20 -40 -20 -31 0 3 -3 13 -6 22 -4 11 -1 16 10 16 9 0 16 -3
16 -7z m606 -63 c21 0 13 -34 -9 -38 -15 -3 -17 4 -15 55 1 42 2 48 5 21 3
-26 9 -38 19 -38z m454 41 c0 -35 -25 -47 -49 -23 -15 15 -18 25 -12 47 0 3
15 5 31 5 26 0 30 -3 30 -29z m-694 -26 c22 -22 23 -27 10 -40 -16 -16 -106
-21 -106 -6 0 10 58 71 66 71 3 0 16 -11 30 -25z m-388 -7 c16 -16 16 -78 0
-78 -9 0 -9 -3 0 -12 16 -16 15 -28 -1 -28 -25 0 -47 39 -47 85 0 37 3 45 18
45 10 0 23 -5 30 -12z m-253 -58 c3 -5 1 -10 -4 -10 -6 0 -11 5 -11 10 0 6 2
10 4 10 3 0 8 -4 11 -10z m65 -50 c0 -26 -4 -30 -26 -30 -14 0 -32 7 -40 15
-20 20 1 44 39 45 23 0 27 -4 27 -30z m570 -8 c11 -12 12 -16 2 -20 -6 -2 -12
-12 -12 -23 0 -11 -7 -19 -16 -19 -9 0 -22 -7 -29 -17 -7 -9 -19 -14 -29 -10
-22 9 -23 92 0 105 21 11 64 3 84 -16z m150 -22 c0 -15 -7 -20 -25 -20 -18 0
-25 5 -25 20 0 15 7 20 25 20 18 0 25 -5 25 -20z m-270 -110 c0 -33 -4 -40
-19 -40 -19 0 -35 25 -26 40 3 5 1 11 -5 15 -20 12 -10 25 20 25 28 0 30 -2
30 -40z m110 10 c0 -5 -4 -10 -10 -10 -5 0 -10 5 -10 10 0 6 5 10 10 10 6 0
10 -4 10 -10z m330 -10 c0 -13 -7 -20 -20 -20 -13 0 -20 7 -20 20 0 13 7 20
20 20 13 0 20 -7 20 -20z m-310 -33 c0 -13 -5 -28 -12 -35 -6 -6 -8 -15 -3
-19 4 -5 10 -2 12 5 8 20 67 15 83 -8 8 -11 18 -20 22 -20 4 0 8 9 8 20 0 11
6 20 14 20 8 0 16 6 18 12 3 9 9 8 21 -4 12 -12 17 -34 17 -73 0 -58 -14 -85
-44 -85 -8 0 -17 -4 -20 -9 -7 -10 17 -21 45 -21 34 0 23 -46 -20 -90 -22 -22
-46 -40 -54 -40 -9 0 -17 -6 -20 -12 -2 -8 -8 -9 -13 -4 -5 5 -4 11 4 13 6 3
12 20 12 38 0 18 -6 36 -12 38 -10 4 -10 8 1 15 16 12 6 33 -13 26 -7 -3 -16
2 -19 10 -4 9 -16 16 -27 16 -12 0 -20 7 -20 18 0 10 -9 24 -20 32 -15 11 -20
26 -20 57 0 24 5 43 10 43 6 0 10 15 10 34 0 31 9 43 33 45 4 1 7 -9 7 -22z
m103 -24 c-7 -2 -19 -2 -25 0 -7 3 -2 5 12 5 14 0 19 -2 13 -5z m224 -65 c-3
-7 -5 -2 -5 12 0 14 2 19 5 13 2 -7 2 -19 0 -25z m-1087 -142 c0 -8 3 -21 6
-30 5 -12 0 -16 -21 -16 -14 0 -24 4 -21 9 4 5 1 11 -6 13 -9 3 -8 9 2 21 18
20 40 22 40 3z m629 -26 c11 0 23 5 26 10 4 6 12 5 21 -4 19 -20 18 -26 -6
-26 -11 0 -20 -4 -20 -10 0 -14 -72 -12 -91 3 -14 10 -15 16 -4 30 7 9 17 17
24 17 6 0 11 6 12 13 0 6 4 2 9 -10 5 -13 18 -23 29 -23z m111 0 c0 -24 -6
-25 -26 -6 -19 20 -18 26 6 26 13 0 20 -7 20 -20z m-242 -42 c-2 -15 -11 -24
-25 -26 -19 -3 -23 1 -23 22 0 21 5 26 26 26 21 0 25 -4 22 -22z m282 -46 c0
-21 7 -47 15 -59 8 -12 12 -28 9 -37 -8 -20 -51 -21 -70 -2 -16 17 -19 56 -4
56 6 0 10 18 10 40 0 33 3 40 20 40 16 0 20 -7 20 -38z m-865 -32 c3 -5 1 -10
-4 -10 -6 0 -11 5 -11 10 0 6 2 10 4 10 3 0 8 -4 11 -10z m90 0 c3 -5 1 -10
-4 -10 -6 0 -11 5 -11 10 0 6 2 10 4 10 3 0 8 -4 11 -10z m227 2 c2 -4 21 -15
43 -23 28 -10 41 -22 43 -37 2 -15 -2 -22 -12 -22 -9 0 -16 -4 -16 -10 0 -20
-30 -9 -35 13 -5 17 -13 23 -28 22 -12 -2 -21 -8 -19 -14 1 -6 -2 -11 -8 -11
-5 0 -10 5 -10 10 0 6 -7 10 -15 10 -8 0 -15 7 -15 15 0 8 -4 15 -10 15 -5 0
-2 9 8 19 17 19 67 28 74 13z m708 -27 c0 -39 -17 -46 -49 -19 -27 24 -16 54
20 54 26 0 29 -3 29 -35z m-1020 -19 c0 -3 -4 -8 -10 -11 -5 -3 -10 -1 -10 4
0 6 5 11 10 11 6 0 10 -2 10 -4z m620 -26 c0 -5 14 -10 31 -10 33 0 59 -19 59
-45 0 -28 -27 -45 -69 -45 -40 0 -41 1 -41 35 0 19 -4 35 -10 35 -5 0 -10 9
-10 20 0 13 7 20 20 20 11 0 20 -4 20 -10z m400 -20 c0 -5 -4 -10 -10 -10 -5
0 -10 5 -10 10 0 6 5 10 10 10 6 0 10 -4 10 -10z m457 -102 c-2 -13 -4 -3 -4
22 0 25 2 35 4 23 2 -13 2 -33 0 -45z m-882 -318 c3 -5 1 -10 -4 -10 -6 0 -11
5 -11 10 0 6 2 10 4 10 3 0 8 -4 11 -10z m-1110 -180 c3 -5 1 -10 -4 -10 -6 0
-11 5 -11 10 0 6 2 10 4 10 3 0 8 -4 11 -10z m715 -135 c0 -8 9 -15 20 -15 11
0 20 -5 20 -12 0 -6 -3 -8 -7 -5 -3 4 -16 1 -28 -7 -20 -13 -23 -13 -35 9 -7
13 -9 28 -6 34 10 16 36 13 36 -4z m-360 -35 c0 -11 -2 -20 -4 -20 -2 0 -6 9
-9 20 -3 11 -1 20 4 20 5 0 9 -9 9 -20z m186 -14 c8 -8 14 -28 14 -45 0 -24
-4 -31 -20 -31 -11 0 -20 7 -20 15 0 8 -4 15 -10 15 -14 0 -12 28 3 45 15 18
16 18 33 1z m292 -23 c12 -12 13 -18 4 -21 -14 -4 -16 -52 -2 -52 6 0 10 -13
10 -30 0 -16 -2 -30 -4 -30 -2 0 -11 -3 -20 -6 -11 -4 -16 -1 -16 10 0 9 -4
16 -10 16 -5 0 -10 16 -10 35 0 21 5 35 12 35 9 0 9 3 0 12 -17 17 -15 48 4
48 8 0 23 -8 32 -17z m-132 -18 c16 -16 18 -41 4 -50 -5 -3 -10 -2 -10 3 0 13
-39 22 -46 11 -6 -10 19 -39 35 -39 6 0 5 -14 -3 -38 -14 -38 -11 -92 4 -92 4
0 22 -13 39 -29 25 -23 31 -37 31 -70 0 -23 -4 -41 -10 -41 -5 0 -10 3 -10 8
0 15 -48 62 -64 62 -9 0 -16 5 -16 10 0 6 -11 10 -25 10 -14 0 -25 4 -25 10 0
5 -16 17 -35 26 -26 12 -35 23 -35 40 0 13 -5 24 -12 24 -6 0 -3 6 7 14 29 21
55 3 55 -38 0 -29 3 -33 20 -29 17 5 20 14 20 59 0 30 -4 54 -10 54 -5 0 -10
24 -10 54 l0 54 41 0 c23 1 48 -5 55 -13z m1364 -30 c0 -25 -4 -45 -10 -45
-11 0 -14 73 -3 83 11 12 13 8 13 -38z m-442 -2 c3 -20 -1 -23 -32 -23 -20 0
-36 -4 -36 -10 0 -5 -4 -10 -10 -10 -5 0 -10 7 -10 15 0 8 -4 15 -10 15 -5 0
-10 9 -10 21 0 18 5 20 53 17 45 -3 52 -6 55 -25z m-708 -72 c0 -11 -39 -21
-45 -11 -2 4 -2 10 2 14 10 9 43 7 43 -3z m220 -12 c0 -11 -10 -29 -22 -40
-15 -12 -19 -21 -13 -26 6 -5 12 -21 13 -38 1 -16 7 -31 12 -33 10 -4 14 -42
4 -42 -10 0 -34 28 -34 39 0 6 -6 11 -12 12 -10 0 -10 2 0 6 6 2 12 9 12 15 0
13 -26 38 -39 38 -6 0 -11 14 -11 31 0 37 23 58 63 59 21 0 27 -5 27 -21z
m154 -19 c5 -5 18 -10 28 -10 15 0 18 -8 18 -45 0 -25 5 -45 10 -45 6 0 10 -7
10 -15 0 -30 45 -66 88 -72 23 -3 42 -10 42 -14 0 -5 5 -9 11 -9 11 0 39 -24
39 -34 0 -3 -16 -6 -35 -6 -19 0 -35 -4 -35 -10 0 -6 -28 -10 -63 -10 -51 0
-65 4 -77 20 -8 11 -19 20 -25 20 -6 0 -22 11 -37 25 -15 14 -39 25 -53 25
-33 0 -32 6 12 46 26 24 32 34 20 34 -13 0 -17 9 -17 35 0 28 -4 35 -20 35
-26 0 -25 8 1 31 23 19 63 19 83 -1z m-464 -32 c0 -11 -8 -18 -19 -18 -21 0
-33 22 -25 45 8 19 44 -3 44 -27z m132 -44 c-4 -19 -34 -46 -42 -37 -3 3 1 8
8 10 6 3 12 16 12 30 0 15 5 23 13 20 6 -2 10 -12 9 -23z m48 -64 c0 -24 -6
-25 -26 -6 -19 20 -18 26 6 26 13 0 20 -7 20 -20z m883 -13 c3 -9 16 -12 36
-9 19 2 31 0 31 -7 0 -6 -4 -11 -10 -11 -5 0 -10 -9 -10 -19 0 -30 -16 -33
-30 -6 -7 14 -22 25 -32 25 -18 0 -48 21 -48 34 0 12 58 5 63 -7z m177 3 c0
-5 -5 -10 -11 -10 -5 0 -7 5 -4 10 3 6 8 10 11 10 2 0 4 -4 4 -10z m-1220 -20
c0 -5 -5 -10 -11 -10 -5 0 -7 5 -4 10 3 6 8 10 11 10 2 0 4 -4 4 -10z m310
-116 c0 -14 -7 -32 -15 -40 -13 -14 -17 -14 -30 -1 -15 15 -19 44 -16 101 l1
29 30 -31 c17 -19 30 -43 30 -58z m-580 45 c0 -27 -1 -29 -16 -15 -12 13 -13
18 -2 30 18 21 18 20 18 -15z m320 27 c0 -3 -4 -8 -10 -11 -5 -3 -10 -1 -10 4
0 6 5 11 10 11 6 0 10 -2 10 -4z m-140 -96 c15 -16 31 -30 35 -30 12 0 35 29
35 44 0 35 39 0 42 -38 3 -31 18 -33 38 -6 24 34 30 23 30 -55 l0 -75 -44 0
c-26 0 -47 -5 -50 -12 -5 -10 -7 -10 -12 0 -3 6 -12 12 -20 12 -14 0 -64 -28
-74 -41 -6 -8 -108 -4 -130 5 -9 4 -25 -2 -37 -14 -12 -11 -36 -20 -53 -20
-16 0 -30 -4 -30 -10 0 -5 -18 -10 -40 -10 -22 0 -40 4 -40 9 0 5 -10 11 -22
13 -22 3 -23 8 -23 78 0 70 1 75 23 78 17 3 22 10 22 33 0 22 5 29 20 29 13 0
20 -7 20 -20 0 -11 7 -20 15 -20 8 0 15 9 15 20 0 22 35 29 43 8 4 -10 7 -10
18 0 7 6 34 12 59 12 34 0 52 5 65 20 26 29 62 25 95 -10z m566 16 c8 -8 14
-20 14 -26 0 -18 27 -40 49 -40 12 0 21 -6 21 -14 0 -8 14 -20 30 -28 17 -7
30 -21 30 -30 0 -13 -8 -18 -30 -18 -16 0 -30 4 -30 9 0 6 -15 11 -32 13 -25
2 -34 8 -36 26 -2 12 -8 22 -13 22 -5 0 -9 9 -9 20 0 11 -4 20 -10 20 -5 0
-10 14 -10 30 0 34 5 37 26 16z m392 -68 c-2 -13 -7 -21 -13 -19 -5 1 -9 7 -7
12 1 5 -2 9 -8 9 -5 0 -10 5 -10 10 0 6 9 10 21 10 15 0 20 -5 17 -22z m-1648
-8 c0 -5 -5 -10 -11 -10 -5 0 -7 5 -4 10 3 6 8 10 11 10 2 0 4 -4 4 -10z m940
-25 c0 -8 5 -15 12 -15 9 0 9 -3 0 -12 -16 -16 -15 -55 1 -61 6 -3 2 -6 -10
-6 -21 -1 -23 3 -23 54 0 30 5 55 10 55 6 0 10 -7 10 -15z m1020 -35 c0 -11 5
-20 10 -20 28 0 3 -49 -32 -62 -24 -10 -38 44 -22 86 9 24 44 20 44 -4z m-684
-14 c19 -20 18 -26 -6 -26 -13 0 -20 7 -20 20 0 24 6 25 26 6z m-116 -16 c0
-5 -4 -10 -10 -10 -5 0 -10 5 -10 10 0 6 5 10 10 10 6 0 10 -4 10 -10z m-25
-20 c3 -5 1 -10 -4 -10 -6 0 -11 5 -11 10 0 6 2 10 4 10 3 0 8 -4 11 -10z
m-2607 -56 c14 -15 14 -17 -3 -27 -16 -8 -16 -11 -4 -21 13 -9 12 -13 -3 -28
-15 -15 -18 -15 -18 -3 0 8 -8 15 -17 15 -15 0 -14 2 3 14 19 15 19 15 -1 30
-18 14 -18 15 -2 16 9 0 17 5 17 10 0 14 9 12 28 -6z m-72 -19 c14 -13 14 -17
0 -31 -15 -14 -17 -14 -32 0 -12 13 -13 18 -2 30 16 19 16 19 34 1z m3414 -25
c0 -22 -4 -40 -10 -40 -5 0 -10 18 -10 40 0 22 5 40 10 40 6 0 10 -18 10 -40z
m-1000 -70 c0 -40 4 -70 10 -70 6 0 10 -13 10 -30 0 -16 -4 -30 -9 -30 -5 0
-11 -10 -13 -22 -2 -18 -10 -23 -40 -25 -21 -1 -38 2 -38 8 0 13 -27 11 -34
-3 -5 -10 -7 -10 -12 0 -7 14 -34 16 -34 2 0 -5 -21 -8 -47 -6 -46 3 -48 4
-51 34 -2 18 1 32 7 32 14 0 14 57 1 65 -8 5 -7 12 2 23 10 12 10 16 1 19 -22
8 -15 43 8 43 11 0 29 5 39 10 13 7 21 7 25 0 5 -7 11 -8 18 -1 12 10 54 17
120 19 l37 2 0 -70z m-470 30 c0 -5 11 -10 25 -10 14 0 25 5 25 10 0 6 9 10
20 10 18 0 20 -7 20 -84 0 -65 3 -85 15 -90 8 -3 15 -15 15 -26 0 -22 35 -29
43 -7 3 8 11 5 24 -10 16 -18 31 -23 72 -23 44 0 51 -3 51 -20 0 -17 -7 -20
-40 -20 -22 0 -40 4 -40 9 0 5 -18 11 -39 13 -22 2 -37 -1 -34 -5 3 -5 -1 -13
-8 -18 -9 -5 -13 -24 -11 -55 1 -28 -3 -51 -10 -55 -13 -8 8 -69 23 -69 5 0 9
-7 9 -16 0 -11 6 -14 20 -9 13 4 22 1 26 -8 5 -15 27 -17 40 -4 13 13 24 7 24
-13 0 -16 7 -20 30 -20 17 0 30 -4 30 -9 0 -5 12 -12 28 -17 22 -6 24 -8 8
-12 -11 -2 -26 -11 -34 -19 -10 -10 -25 -13 -49 -8 -18 3 -33 2 -33 -3 0 -6
-8 -13 -17 -16 -12 -5 -29 6 -59 38 -45 50 -64 57 -64 26 0 -11 -7 -20 -15
-20 -8 0 -15 5 -15 10 0 6 5 10 10 10 6 0 10 5 10 10 0 6 -7 10 -15 10 -8 0
-15 4 -15 9 0 5 -9 13 -20 16 -11 3 -20 13 -20 21 0 9 -6 22 -12 29 -30 33
-38 45 -38 55 0 5 -4 10 -10 10 -5 0 -10 7 -10 15 0 18 -50 71 -63 67 -17 -5
-47 10 -47 24 0 8 5 14 10 14 6 0 10 7 10 15 0 18 16 20 23 3 14 -33 27 26 27
120 0 68 4 108 13 117 14 16 67 20 67 5z m-1820 -20 c0 -5 -5 -10 -11 -10 -5
0 -7 5 -4 10 3 6 8 10 11 10 2 0 4 -4 4 -10z m2530 0 c0 -5 -9 -10 -20 -10
-11 0 -20 5 -20 10 0 6 9 10 20 10 11 0 20 -4 20 -10z m-2211 -164 c-5 -6 -9
-18 -9 -28 0 -22 -28 -24 -36 -3 -4 10 -16 13 -37 11 -18 -2 -38 -4 -44 -5 -7
0 -13 -10 -13 -21 0 -23 -25 -27 -46 -6 -21 22 -17 39 21 80 l34 38 34 -36
c19 -20 37 -36 41 -36 3 0 6 19 6 41 0 28 6 46 18 55 15 11 18 8 28 -34 6 -26
7 -51 3 -56z m2441 80 c0 -3 -4 -8 -10 -11 -5 -3 -10 -1 -10 4 0 6 5 11 10 11
6 0 10 -2 10 -4z m-2814 -30 c8 -8 14 -28 14 -44 0 -17 6 -32 13 -35 12 -4 6
-11 -52 -59 -18 -15 -21 -16 -21 -3 0 9 -6 18 -13 21 -16 6 -21 64 -6 64 5 0
9 6 9 13 0 12 30 57 38 57 2 0 10 -6 18 -14z m3344 -26 c0 -11 -4 -20 -10 -20
-5 0 -10 9 -10 20 0 11 5 20 10 20 6 0 10 -9 10 -20z m-1600 -25 c0 -18 -5
-25 -20 -25 -15 0 -20 7 -20 25 0 18 5 25 20 25 15 0 20 -7 20 -25z m600 -53
c0 -4 -11 -15 -24 -25 -17 -13 -24 -28 -24 -52 0 -37 -20 -65 -46 -65 -11 0
-16 9 -16 30 0 21 5 30 16 30 8 0 12 5 9 10 -3 6 1 10 9 10 12 0 16 10 16 35
0 32 2 35 30 35 17 0 30 -3 30 -8z m-256 -50 c-6 -4 -13 -14 -16 -22 -3 -10
-6 -8 -10 8 -5 18 -2 22 15 22 13 0 17 -3 11 -8z m-1164 -16 c0 -3 -4 -8 -10
-11 -5 -3 -10 -1 -10 4 0 6 5 11 10 11 6 0 10 -2 10 -4z m20 -26 c0 -5 -4 -10
-10 -10 -5 0 -10 5 -10 10 0 6 5 10 10 10 6 0 10 -4 10 -10z m-510 -25 c0 -10
10 -15 33 -15 21 0 38 -7 47 -20 11 -16 26 -20 67 -20 50 0 68 -11 41 -24 -10
-5 -10 -7 0 -12 14 -7 16 -44 2 -44 -5 0 -10 -7 -10 -15 0 -26 -37 -17 -44 10
-6 22 -12 25 -48 25 -45 0 -67 -19 -68 -58 0 -30 -49 -80 -60 -62 -6 10 -12 9
-30 -3 -25 -17 -47 -13 -71 15 -11 12 -30 18 -58 18 l-41 0 0 45 c0 25 5 45
10 45 6 0 10 13 10 28 0 29 17 43 68 57 12 4 22 11 22 16 0 7 20 8 55 4 47 -6
55 -5 55 9 0 9 5 16 10 16 6 0 10 -7 10 -15z m670 -39 c0 -3 -4 -8 -10 -11 -5
-3 -10 -1 -10 4 0 6 5 11 10 11 6 0 10 -2 10 -4z m1130 -26 c0 -5 -4 -10 -10
-10 -5 0 -10 5 -10 10 0 6 5 10 10 10 6 0 10 -4 10 -10z m-2930 -40 c0 -5 -4
-10 -10 -10 -5 0 -10 5 -10 10 0 6 5 10 10 10 6 0 10 -4 10 -10z m1486 -15 c4
-16 13 -25 25 -25 12 0 19 -7 19 -20 0 -11 5 -20 10 -20 6 0 10 -9 10 -19 0
-10 7 -21 15 -25 10 -3 14 -14 11 -29 -2 -12 2 -40 9 -61 9 -24 10 -46 5 -60
-5 -11 -11 -34 -15 -49 l-6 -29 -19 25 c-15 18 -20 41 -20 81 0 31 -4 56 -10
56 -5 0 -10 11 -10 25 0 14 -4 25 -10 25 -5 0 -10 14 -10 30 0 17 -4 30 -10
30 -5 0 -12 11 -16 25 -3 14 -10 25 -14 25 -5 0 -6 9 -3 20 7 28 31 25 39 -5z
m199 15 c3 -5 1 -10 -4 -10 -6 0 -11 5 -11 10 0 6 2 10 4 10 3 0 8 -4 11 -10z
m1220 0 c3 -5 1 -10 -4 -10 -6 0 -11 5 -11 10 0 6 2 10 4 10 3 0 8 -4 11 -10z
m579 -31 c-3 -5 -10 -7 -15 -3 -5 3 -7 10 -3 15 3 5 10 7 15 3 5 -3 7 -10 3
-15z m-1844 -59 c0 -5 -5 -10 -11 -10 -5 0 -7 5 -4 10 3 6 8 10 11 10 2 0 4
-4 4 -10z m1386 -34 c16 -17 19 -46 4 -46 -5 0 -10 5 -10 10 0 6 -13 10 -30
10 -32 0 -37 9 -18 28 16 16 36 15 54 -2z m-2786 -126 c0 -5 -2 -10 -4 -10 -3
0 -8 5 -11 10 -3 6 -1 10 4 10 6 0 11 -4 11 -10z m50 6 c0 -3 -4 -8 -10 -11
-5 -3 -10 -1 -10 4 0 6 5 11 10 11 6 0 10 -2 10 -4z m2530 -110 c0 -3 -4 -8
-10 -11 -5 -3 -10 -1 -10 4 0 6 5 11 10 11 6 0 10 -2 10 -4z m-1225 -46 c3 -5
1 -10 -4 -10 -6 0 -11 5 -11 10 0 6 2 10 4 10 3 0 8 -4 11 -10z m45 -60 c0
-13 -7 -20 -20 -20 -23 0 -25 5 -7 25 17 20 27 18 27 -5z m-1800 -50 c0 -5 -5
-10 -11 -10 -5 0 -7 5 -4 10 3 6 8 10 11 10 2 0 4 -4 4 -10z m45 0 c3 -5 1
-10 -4 -10 -6 0 -11 5 -11 10 0 6 2 10 4 10 3 0 8 -4 11 -10z m45 0 c0 -5 -5
-10 -11 -10 -5 0 -7 5 -4 10 3 6 8 10 11 10 2 0 4 -4 4 -10z m3420 0 c0 -5 -5
-10 -11 -10 -5 0 -7 5 -4 10 3 6 8 10 11 10 2 0 4 -4 4 -10z m-3440 -24 c0 -3
-4 -8 -10 -11 -5 -3 -10 -1 -10 4 0 6 5 11 10 11 6 0 10 -2 10 -4z m26 -30
c15 -16 18 -26 6 -26 -4 0 -13 9 -20 20 -14 23 -7 26 14 6z m639 -11 c14 -13
25 -27 25 -31 0 -12 34 -33 53 -34 9 0 17 -4 17 -10 0 -5 13 -10 29 -10 16 0
31 -5 33 -12 3 -7 20 -11 46 -10 23 2 42 -1 42 -5 0 -16 56 -32 129 -38 53 -4
95 -1 150 12 42 9 78 20 81 23 10 10 40 11 40 0 0 -5 7 -10 15 -10 8 0 15 5
15 10 0 6 8 10 18 10 10 0 24 9 32 20 8 11 22 20 30 20 9 0 20 4 25 9 16 16
47 -14 43 -41 -2 -17 -11 -24 -33 -28 -19 -3 -31 -12 -33 -25 -5 -22 -28 -40
-52 -40 -8 0 -15 -9 -16 -20 -2 -48 -5 -55 -20 -55 -9 0 -29 -15 -45 -32 -65
-74 -72 -78 -119 -78 -22 0 -40 -4 -40 -10 0 -5 -13 -10 -30 -10 -16 0 -30 5
-30 10 0 6 -16 10 -35 10 -19 0 -35 5 -35 10 0 6 -11 22 -25 35 -13 14 -29 25
-35 25 -5 0 -10 18 -10 41 0 45 -17 69 -50 69 -11 0 -33 12 -47 28 -17 18 -27
23 -30 15 -7 -19 -36 -16 -61 7 -12 11 -33 20 -47 20 -14 0 -25 5 -25 10 0 6
-7 10 -15 10 -8 0 -15 5 -15 10 0 6 -8 10 -18 10 -20 0 -62 32 -62 46 0 18 46
64 63 64 10 0 29 -11 42 -25z m-665 -5 c0 -5 -4 -10 -10 -10 -5 0 -10 5 -10
10 0 6 5 10 10 10 6 0 10 -4 10 -10z m2950 -20 c0 -5 -5 -10 -11 -10 -5 0 -7
5 -4 10 3 6 8 10 11 10 2 0 4 -4 4 -10z m1310 -20 c0 -5 -5 -10 -11 -10 -5 0
-7 5 -4 10 3 6 8 10 11 10 2 0 4 -4 4 -10z m-4370 -24 c0 -3 -4 -8 -10 -11 -5
-3 -10 -1 -10 4 0 6 5 11 10 11 6 0 10 -2 10 -4z m-70 -66 c0 -5 -5 -10 -11
-10 -5 0 -7 5 -4 10 3 6 8 10 11 10 2 0 4 -4 4 -10z m3091 -40 c10 0 19 -4 19
-10 0 -5 -13 -10 -30 -10 -28 0 -30 2 -29 38 1 36 1 37 11 10 6 -17 17 -28 29
-28z m-3291 10 c0 -5 -2 -10 -4 -10 -3 0 -8 5 -11 10 -3 6 -1 10 4 10 6 0 11
-4 11 -10z m-20 -20 c0 -5 -4 -10 -10 -10 -5 0 -10 5 -10 10 0 6 5 10 10 10 6
0 10 -4 10 -10z m-25 -20 c3 -5 1 -10 -4 -10 -6 0 -11 5 -11 10 0 6 2 10 4 10
3 0 8 -4 11 -10z m3371 -65 c-5 -14 -56 -22 -56 -9 0 9 24 30 40 36 17 6 24
-6 16 -27z m-3416 -65 c0 -5 -5 -10 -11 -10 -5 0 -7 5 -4 10 3 6 8 10 11 10 2
0 4 -4 4 -10z m2180 -15 c0 -8 -4 -17 -10 -20 -6 -4 -10 5 -10 20 0 15 4 24
10 20 6 -3 10 -12 10 -20z m-2330 -9 c0 -3 -4 -8 -10 -11 -5 -3 -10 -1 -10 4
0 6 5 11 10 11 6 0 10 -2 10 -4z m1592 -56 c15 0 8 -30 -11 -49 -17 -17 -20
-17 -32 -2 -17 20 -23 51 -10 51 5 0 13 10 17 23 l7 22 10 -22 c6 -13 14 -23
19 -23z m758 21 c0 -11 5 -21 11 -23 5 -2 11 -11 13 -20 1 -10 12 -26 24 -36
12 -11 22 -31 22 -46 0 -22 -4 -26 -27 -26 -51 1 -63 20 -63 99 0 41 4 71 10
71 6 0 10 -9 10 -19z m1908 -8 c17 -17 22 -28 14 -31 -7 -2 -12 -15 -12 -28 0
-14 -4 -22 -10 -19 -5 3 -10 15 -10 25 0 10 -6 21 -12 23 -10 4 -9 8 2 17 11
9 12 13 3 17 -13 5 -18 23 -8 23 3 0 18 -12 33 -27z m-4238 -23 c0 -5 -4 -10
-10 -10 -5 0 -10 5 -10 10 0 6 5 10 10 10 6 0 10 -4 10 -10z m768 -23 c12 -3
10 -5 -5 -6 -18 -1 -23 4 -22 22 1 15 3 17 6 5 2 -9 12 -19 21 -21z m1750 -33
c18 -18 15 -24 -14 -24 -14 0 -23 -4 -19 -10 3 -5 2 -10 -3 -10 -10 0 -23 50
-16 62 6 9 35 -2 52 -18z m-800 -21 c12 -12 13 -18 4 -21 -14 -4 -16 -52 -2
-52 6 0 10 -13 10 -29 0 -17 4 -32 9 -35 7 -5 19 -56 36 -146 1 -8 -1 -24 -6
-35 -6 -17 -8 -15 -8 11 -1 19 -7 34 -16 38 -10 4 -15 20 -15 51 0 25 -4 45
-10 45 -5 0 -10 21 -10 46 0 27 -4 43 -10 39 -5 -3 -10 3 -10 14 0 12 -4 21
-10 21 -5 0 -10 16 -10 35 0 39 20 47 48 18z m2018 -17 c20 -21 19 -96 -2 -96
-38 0 -56 51 -32 90 15 24 16 24 34 6z m-2116 -51 c0 -38 -3 -45 -20 -45 -13
0 -20 7 -20 20 0 11 -4 20 -10 20 -11 0 -14 33 -3 43 3 4 17 7 30 7 21 0 23
-5 23 -45z m826 -19 c8 -8 14 -26 14 -39 0 -14 7 -30 15 -37 8 -7 15 -19 15
-26 0 -8 5 -14 10 -14 6 0 10 -11 10 -25 0 -14 5 -25 10 -25 6 0 10 -7 10 -15
0 -9 9 -25 20 -37 12 -13 20 -35 19 -52 0 -17 -3 -25 -6 -18 -2 6 -11 12 -19
12 -8 0 -14 7 -14 15 0 8 -4 15 -10 15 -5 0 -10 7 -10 15 0 8 -13 28 -28 45
-16 16 -37 47 -48 70 -10 22 -27 43 -36 46 -33 10 -16 83 20 84 7 0 20 -6 28
-14z m-2336 -86 c0 -5 -4 -10 -10 -10 -5 0 -10 5 -10 10 0 6 5 10 10 10 6 0
10 -4 10 -10z m2490 -30 c0 -11 -4 -20 -10 -20 -5 0 -10 9 -10 20 0 11 5 20
10 20 6 0 10 -9 10 -20z m-926 -70 c7 0 12 -15 12 -40 0 -22 -3 -40 -8 -40 -4
0 -8 9 -8 20 0 11 -4 20 -10 20 -5 0 -9 21 -9 48 1 29 4 36 6 20 2 -16 10 -28
17 -28z m2660 -32 c5 -10 7 -10 12 0 3 6 12 12 20 12 9 0 12 -4 9 -10 -7 -11
-1 -12 115 -10 53 1 87 6 92 13 6 9 8 9 8 0 0 -8 13 -13 30 -13 17 0 40 -9 51
-19 l21 -19 -30 -16 c-21 -11 -58 -16 -117 -16 -50 0 -85 -4 -85 -10 0 -15
-57 -12 -64 3 -5 10 -7 10 -12 0 -3 -7 -12 -13 -20 -13 -18 0 -19 -51 -2 -68
10 -10 10 -15 -2 -23 -11 -8 -12 -12 -2 -16 14 -6 17 -73 2 -73 -5 0 -10 -13
-10 -30 0 -16 -4 -30 -10 -30 -5 0 -10 20 -10 45 0 25 -4 45 -10 45 -5 0 -10
18 -10 40 0 22 5 40 10 40 15 0 12 67 -2 74 -10 5 -10 7 0 12 18 8 15 28 -8
44 -26 19 -26 50 -1 50 11 0 22 -6 25 -12z m453 -20 c-3 -7 -5 -2 -5 12 0 14
2 19 5 13 2 -7 2 -19 0 -25z m-4477 2 c0 -5 -5 -10 -11 -10 -5 0 -7 5 -4 10 3
6 8 10 11 10 2 0 4 -4 4 -10z m29 -56 c-7 -13 -16 -24 -21 -24 -5 0 -7 4 -4 9
3 5 -1 12 -10 15 -12 5 -10 11 13 33 25 25 28 26 31 9 2 -10 -2 -30 -9 -42z
m151 56 c0 -5 -4 -10 -10 -10 -5 0 -10 5 -10 10 0 6 5 10 10 10 6 0 10 -4 10
-10z m-70 -20 c0 -5 -5 -10 -11 -10 -5 0 -7 5 -4 10 3 6 8 10 11 10 2 0 4 -4
4 -10z m-20 -30 c0 -5 7 -10 16 -10 8 0 12 5 9 10 -4 6 9 10 32 10 30 -1 35
-3 21 -11 -12 -6 -16 -19 -14 -39 2 -18 -2 -31 -10 -34 -16 -6 -19 -26 -3 -26
11 0 39 -24 39 -34 0 -3 -7 -6 -15 -6 -8 0 -15 -5 -15 -10 0 -6 7 -13 15 -16
15 -6 22 -64 7 -64 -5 0 -18 -9 -30 -20 -12 -12 -22 -16 -22 -10 0 5 -5 10
-11 10 -18 0 -46 33 -31 38 18 6 15 22 -10 43 l-21 19 21 19 c12 10 22 24 22
31 0 9 -6 7 -20 -5 -11 -10 -20 -13 -20 -7 0 7 5 12 10 12 14 0 12 27 -2 33
-9 3 -5 11 11 26 13 11 21 24 17 28 -4 4 -11 1 -16 -7 -5 -8 -12 -11 -15 -8
-7 7 15 37 28 38 4 0 7 -4 7 -10z m2216 -35 c22 -22 23 -27 10 -40 -20 -20
-26 -19 -26 5 0 11 -4 20 -10 20 -5 0 -10 9 -10 20 0 26 6 25 36 -5z m-2706
-135 c0 -5 -5 -10 -11 -10 -5 0 -7 5 -4 10 3 6 8 10 11 10 2 0 4 -4 4 -10z
m485 -90 c3 -5 1 -10 -4 -10 -6 0 -11 5 -11 10 0 6 2 10 4 10 3 0 8 -4 11 -10z
m25 -30 c0 -5 -2 -10 -4 -10 -3 0 -8 5 -11 10 -3 6 -1 10 4 10 6 0 11 -4 11
-10z m1270 -14 c0 -3 -4 -8 -10 -11 -5 -3 -10 -1 -10 4 0 6 5 11 10 11 6 0 10
-2 10 -4z m-1270 -26 c0 -5 -4 -10 -10 -10 -5 0 -10 5 -10 10 0 6 5 10 10 10
6 0 10 -4 10 -10z m2265 0 c-3 -5 -13 -10 -21 -10 -8 0 -14 5 -14 10 0 6 9 10
21 10 11 0 17 -4 14 -10z m2175 0 c0 -5 -2 -10 -4 -10 -3 0 -8 5 -11 10 -3 6
-1 10 4 10 6 0 11 -4 11 -10z m-3150 -65 c0 -30 -4 -55 -10 -55 -5 0 -10 12
-10 26 0 14 -4 23 -10 19 -5 -3 -10 -1 -10 4 0 6 5 11 10 11 6 0 10 11 10 25
0 14 5 25 10 25 6 0 10 -25 10 -55z m-1245 25 c3 -5 1 -10 -4 -10 -6 0 -11 5
-11 10 0 6 2 10 4 10 3 0 8 -4 11 -10z m1135 -24 c0 -3 -4 -8 -10 -11 -5 -3
-10 -1 -10 4 0 6 5 11 10 11 6 0 10 -2 10 -4z m-1110 -53 c0 -7 6 -13 13 -14
10 0 10 -2 0 -6 -7 -2 -13 -11 -13 -18 0 -7 6 -16 13 -18 9 -4 8 -8 -3 -16
-13 -10 -13 -12 0 -20 12 -8 9 -14 -15 -35 -28 -24 -29 -25 -46 -5 -9 10 -21
19 -28 19 -6 0 -11 5 -11 10 0 6 7 10 15 10 21 0 19 16 -2 25 -17 6 -17 7 0
16 9 6 17 21 17 35 0 35 20 54 42 40 10 -6 18 -16 18 -23z m1130 27 c0 -5 -4
-10 -10 -10 -5 0 -10 5 -10 10 0 6 5 10 10 10 6 0 10 -4 10 -10z m20 -20 c0
-5 -5 -10 -11 -10 -5 0 -7 5 -4 10 3 6 8 10 11 10 2 0 4 -4 4 -10z m3200 -64
l0 -74 -31 -11 c-18 -6 -47 -11 -66 -11 -27 0 -34 4 -31 18 2 9 13 18 26 20
12 2 22 8 22 13 0 5 7 9 16 9 27 0 44 27 44 69 0 23 5 41 10 41 6 0 10 -31 10
-74z m-4240 4 c0 -11 -4 -20 -10 -20 -5 0 -10 9 -10 20 0 11 5 20 10 20 6 0
10 -9 10 -20z m1110 -10 c0 -5 -7 -10 -16 -10 -8 0 -12 -4 -9 -10 3 -5 1 -10
-4 -10 -6 0 -11 9 -11 20 0 13 7 20 20 20 11 0 20 -4 20 -10z m-2070 -150 c0
-5 -5 -10 -11 -10 -5 0 -7 5 -4 10 3 6 8 10 11 10 2 0 4 -4 4 -10z m859 -28
c-5 -2 -9 -15 -9 -28 0 -13 -4 -24 -10 -24 -5 0 -10 11 -10 25 0 14 -6 25 -12
26 -10 0 -10 2 0 6 6 2 12 12 12 21 0 13 3 12 19 -4 10 -10 14 -20 10 -22z
m4278 15 c17 -13 -2 -47 -27 -47 -10 0 -20 -6 -23 -12 -3 -9 -9 -7 -19 6 -13
17 -12 22 11 47 25 26 31 27 58 6z m83 -147 c0 -5 -4 -10 -10 -10 -5 0 -10 5
-10 10 0 6 5 10 10 10 6 0 10 -4 10 -10z"/>
<path d="M4660 3400 c0 -5 5 -10 10 -10 6 0 10 5 10 10 0 6 -4 10 -10 10 -5 0
-10 -4 -10 -10z"/>
<path d="M1040 734 c0 -17 22 -14 28 4 2 7 -3 12 -12 12 -9 0 -16 -7 -16 -16z"/>
<path d="M670 5445 c0 -10 10 -15 29 -15 16 0 31 -6 34 -12 2 -8 8 -9 13 -4 5
5 4 11 -3 13 -7 3 -13 11 -13 19 0 9 -11 14 -30 14 -20 0 -30 -5 -30 -15z"/>
<path d="M890 5395 c0 -32 37 -40 43 -10 3 18 -1 24 -20 28 -19 3 -23 0 -23
-18z"/>
<path d="M2530 4955 c0 -8 -4 -15 -9 -15 -5 0 -13 -9 -16 -20 -4 -14 -15 -20
-36 -20 -16 0 -29 -4 -29 -10 0 -5 5 -10 10 -10 6 0 10 -9 10 -19 0 -11 4 -22
9 -25 15 -9 41 -102 41 -145 0 -23 5 -41 10 -41 6 0 10 -9 10 -20 0 -11 5 -20
10 -20 6 0 10 -13 10 -30 0 -30 -14 -41 -23 -17 -8 21 -14 4 -19 -51 -5 -46
-3 -54 16 -64 12 -6 25 -17 29 -25 6 -11 12 -11 22 -3 9 8 15 8 20 0 10 -16
45 -12 45 5 0 8 -4 15 -10 15 -5 0 -10 9 -10 20 0 11 -4 20 -10 20 -5 0 -10
14 -10 30 0 17 5 30 10 30 6 0 10 -4 10 -10 0 -5 13 -10 29 -10 17 0 33 -4 36
-10 3 -5 19 -10 36 -10 16 0 29 -4 29 -10 0 -6 28 -10 65 -10 37 0 65 -4 65
-10 0 -6 33 -10 80 -10 47 0 80 4 80 10 0 6 25 10 55 10 30 0 55 5 55 10 0 6
9 10 20 10 11 0 20 5 20 10 0 6 5 10 11 10 7 0 20 9 29 20 10 12 33 22 53 24
48 4 75 33 72 74 -2 18 -12 41 -24 51 -11 10 -21 30 -21 45 0 16 -13 40 -35
63 -19 20 -35 41 -35 46 0 18 -30 37 -59 37 -23 0 -31 5 -31 18 0 29 -42 42
-153 48 -56 4 -103 10 -105 15 -2 5 -84 9 -183 9 -152 0 -179 -2 -179 -15z
m482 -122 c15 -3 26 -9 23 -13 -6 -10 -94 -9 -101 1 -3 5 2 9 11 9 10 0 13 5
9 12 -5 8 -2 9 12 4 10 -4 31 -10 46 -13z m-62 -82 c0 -10 -7 -22 -16 -25 -23
-9 -24 -8 -24 19 0 18 5 25 20 25 13 0 20 -7 20 -19z"/>
<path d="M2150 4910 c0 -5 -9 -10 -20 -10 -11 0 -20 -4 -20 -10 0 -6 -28 -10
-65 -10 -37 0 -65 -4 -65 -10 0 -5 -7 -10 -15 -10 -8 0 -15 -4 -15 -10 0 -5
-11 -10 -25 -10 -28 0 -105 -31 -105 -42 0 -5 -7 -8 -16 -8 -8 0 -12 -4 -9
-10 3 -5 0 -10 -9 -10 -8 0 -17 -6 -19 -12 -4 -10 -6 -10 -6 0 -1 16 -39 15
-56 -2 -8 -8 -16 -28 -17 -45 -1 -18 -8 -31 -16 -31 -19 0 -10 -23 10 -26 9
-1 25 9 35 22 10 13 22 24 28 24 6 0 17 9 25 20 8 11 22 20 32 20 11 0 18 -7
18 -20 0 -22 16 -27 22 -8 3 9 10 8 23 -5 14 -15 15 -21 6 -27 -10 -6 -9 -12
5 -28 13 -16 21 -18 31 -11 9 8 17 7 28 -4 22 -23 19 -27 -24 -27 -26 0 -41 5
-45 16 -5 12 -16 14 -54 9 -26 -3 -56 -9 -67 -12 -11 -4 -29 -7 -40 -7 -11 -1
-21 -9 -23 -21 -3 -10 -17 -31 -33 -46 -22 -20 -29 -36 -29 -63 0 -20 5 -36
10 -36 6 0 10 -13 10 -30 0 -27 3 -30 31 -30 18 0 39 -8 48 -18 38 -42 68 -52
155 -52 62 0 93 5 115 18 17 9 31 20 31 25 0 4 11 7 25 7 14 0 25 5 25 10 0 6
9 10 20 10 13 0 20 7 20 20 0 16 7 20 34 20 24 0 43 9 65 29 30 29 31 31 31
124 0 63 4 100 13 109 6 7 13 26 14 43 0 16 6 31 12 33 13 4 15 92 2 92 -5 0
-13 9 -16 20 -5 15 -15 20 -45 20 -21 0 -42 5 -45 10 -3 6 -10 10 -16 10 -5 0
-9 -4 -9 -10z"/>
<path d="M2330 4400 c0 -5 4 -10 9 -10 6 0 13 5 16 10 3 6 -1 10 -9 10 -9 0
-16 -4 -16 -10z"/>
<path d="M2067 4253 c-9 -20 0 -38 21 -41 18 -3 22 1 22 22 0 19 -5 26 -19 26
-11 0 -22 -3 -24 -7z"/>
<path d="M2040 4139 c0 -30 6 -56 14 -65 18 -17 33 -18 39 -1 4 10 6 10 6 0 2
-22 31 -14 31 7 0 13 -7 20 -20 20 -16 0 -20 7 -20 31 0 30 -19 59 -39 59 -6
0 -11 -21 -11 -51z"/>
<path d="M2440 4105 c0 -16 6 -25 16 -25 11 0 14 5 10 16 -3 9 -6 20 -6 25 0
5 -4 9 -10 9 -5 0 -10 -11 -10 -25z"/>
<path d="M20 4070 c0 -5 7 -10 15 -10 8 0 15 5 15 10 0 6 -7 10 -15 10 -8 0
-15 -4 -15 -10z"/>
<path d="M2400 4045 c0 -8 5 -15 10 -15 6 0 10 7 10 15 0 8 -4 15 -10 15 -5 0
-10 -7 -10 -15z"/>
<path d="M2442 3903 c3 -51 21 -62 26 -16 2 15 8 33 13 39 11 14 1 24 -23 24
-17 0 -19 -7 -16 -47z"/>
<path d="M4150 3939 c0 -6 6 -17 14 -25 22 -21 36 -17 36 11 0 20 -5 25 -25
25 -14 0 -25 -5 -25 -11z"/>
<path d="M4528 3855 c3 -16 11 -25 23 -25 23 0 25 16 5 36 -22 21 -34 17 -28
-11z"/>
<path d="M2406 3825 c-8 -8 -19 -15 -24 -15 -5 0 -9 -9 -8 -20 0 -11 4 -20 9
-20 4 0 14 0 22 0 8 0 15 9 15 20 0 13 7 20 20 20 15 0 20 -7 20 -25 0 -32 33
-65 58 -58 25 6 17 43 -9 43 -22 0 -27 35 -6 43 9 4 8 8 -3 16 -22 16 -76 13
-94 -4z"/>
<path d="M4126 3833 c-10 -10 4 -23 25 -23 10 0 19 -4 19 -10 0 -5 11 -10 25
-10 28 0 31 6 12 24 -14 14 -72 28 -81 19z"/>
<path d="M2550 3800 c0 -5 5 -10 10 -10 6 0 10 5 10 10 0 6 -4 10 -10 10 -5 0
-10 -4 -10 -10z"/>
<path d="M3150 3716 c0 -9 7 -16 16 -16 9 0 14 5 12 12 -6 18 -28 21 -28 4z"/>
<path d="M2394 3684 c3 -9 6 -18 6 -20 0 -2 12 -4 27 -4 25 0 26 0 8 20 -22
24 -50 27 -41 4z"/>
<path d="M2550 3635 c0 -14 -4 -25 -10 -25 -5 0 -10 -13 -10 -30 0 -16 5 -30
10 -30 6 0 10 11 10 25 0 15 11 36 25 49 26 24 24 36 -7 36 -13 0 -18 -7 -18
-25z"/>
<path d="M2620 3610 c0 -13 7 -20 20 -20 13 0 20 -7 20 -20 0 -12 7 -20 16
-20 24 0 13 43 -13 55 -13 5 -23 13 -23 17 0 5 -4 8 -10 8 -5 0 -10 -9 -10
-20z"/>
<path d="M2040 3600 c0 -5 -16 -10 -35 -10 -19 0 -35 -4 -35 -10 0 -5 5 -10
10 -10 6 0 10 -4 10 -10 0 -5 -7 -10 -15 -10 -15 0 -65 -43 -65 -55 0 -10 28
-35 39 -35 6 0 11 6 12 13 1 6 4 1 8 -13 6 -21 13 -25 46 -26 22 -1 55 5 74
12 54 22 83 17 124 -21 20 -19 44 -35 52 -35 15 0 65 -43 65 -55 0 -12 29 -35
44 -35 9 0 16 -4 16 -10 0 -5 7 -10 15 -10 8 0 15 -4 15 -10 0 -5 7 -10 16
-10 9 0 31 -16 50 -35 31 -34 36 -35 103 -35 39 0 71 4 71 8 0 4 -6 20 -12 35
-11 21 -20 27 -48 27 -37 1 -85 29 -62 37 8 3 12 30 12 84 l0 79 -30 0 c-23 0
-30 4 -30 20 0 17 -7 20 -47 22 -27 0 -55 1 -63 0 -8 0 -19 6 -23 14 -4 8 -21
14 -37 14 -23 0 -30 5 -30 20 0 11 -7 20 -15 20 -8 0 -15 -4 -15 -10 0 -5 -9
-10 -20 -10 -11 0 -20 5 -20 10 0 6 -9 10 -20 10 -11 0 -20 5 -20 10 0 6 -16
10 -35 10 -19 0 -35 5 -35 10 0 6 -16 10 -35 10 -19 0 -35 -4 -35 -10z"/>
<path d="M4660 3600 c0 -5 9 -10 19 -10 11 0 23 5 26 10 4 6 -5 10 -19 10 -14
0 -26 -4 -26 -10z"/>
<path d="M3530 2780 c0 -5 5 -10 10 -10 6 0 10 5 10 10 0 6 -4 10 -10 10 -5 0
-10 -4 -10 -10z"/>
<path d="M2530 2760 c0 -5 5 -10 10 -10 6 0 10 5 10 10 0 6 -4 10 -10 10 -5 0
-10 -4 -10 -10z"/>
<path d="M4485 2430 c-3 -5 1 -10 10 -10 9 0 13 5 10 10 -3 6 -8 10 -10 10 -2
0 -7 -4 -10 -10z"/>
<path d="M4660 2380 c0 -5 7 -10 15 -10 8 0 15 5 15 10 0 6 -7 10 -15 10 -8 0
-15 -4 -15 -10z"/>
<path d="M4575 2340 c-3 -5 -1 -10 4 -10 6 0 11 5 11 10 0 6 -2 10 -4 10 -3 0
-8 -4 -11 -10z"/>
<path d="M4600 2309 c0 -5 5 -7 10 -4 6 3 10 8 10 11 0 2 -4 4 -10 4 -5 0 -10
-5 -10 -11z"/>
<path d="M4665 2310 c4 -6 11 -8 16 -5 14 9 11 15 -7 15 -8 0 -12 -5 -9 -10z"/>
<path d="M4480 2290 c0 -5 4 -10 9 -10 6 0 13 5 16 10 3 6 -1 10 -9 10 -9 0
-16 -4 -16 -10z"/>
<path d="M4590 2250 c0 -5 7 -10 15 -10 8 0 15 5 15 10 0 6 -7 10 -15 10 -8 0
-15 -4 -15 -10z"/>
<path d="M4484 2226 c-6 -17 2 -36 17 -36 12 0 12 37 -1 45 -6 3 -13 -1 -16
-9z"/>
<path d="M4660 2180 c0 -5 5 -10 10 -10 6 0 10 5 10 10 0 6 -4 10 -10 10 -5 0
-10 -4 -10 -10z"/>
<path d="M4685 2160 c-3 -5 -1 -10 6 -10 6 0 18 -8 25 -17 9 -12 13 -14 14 -5
0 13 -23 42 -34 42 -3 0 -8 -4 -11 -10z"/>
<path d="M4486 2143 c-12 -12 -6 -43 9 -43 8 0 15 9 15 19 0 21 -13 34 -24 24z"/>
<path d="M4563 2085 c-21 -23 -16 -25 48 -25 37 0 58 4 54 10 -3 6 -19 10 -36
10 -16 0 -29 5 -29 10 0 15 -23 12 -37 -5z"/>
<path d="M4675 2050 c-3 -5 3 -10 14 -10 12 0 21 5 21 10 0 6 -6 10 -14 10 -8
0 -18 -4 -21 -10z"/>
<path d="M4378 2034 c-7 -7 67 -84 81 -84 5 0 11 6 14 13 3 10 9 10 26 0 31
-19 51 -16 51 7 0 17 -7 20 -51 20 -49 0 -79 15 -79 39 0 11 -32 15 -42 5z"/>
<path d="M4320 1970 c-8 -11 -20 -20 -27 -20 -7 0 -13 -4 -13 -10 0 -5 -5 -10
-11 -10 -16 0 -69 -57 -69 -72 1 -8 6 -6 14 5 8 10 26 17 45 17 17 0 31 5 31
10 0 6 9 10 20 10 11 0 20 6 20 13 0 7 9 19 20 27 11 8 20 22 20 32 0 24 -32
23 -50 -2z"/>
<path d="M4570 1960 c0 -5 16 -10 35 -10 19 0 35 5 35 10 0 6 -16 10 -35 10
-19 0 -35 -4 -35 -10z"/>
<path d="M4660 1960 c0 -5 7 -10 15 -10 8 0 15 5 15 10 0 6 -7 10 -15 10 -8 0
-15 -4 -15 -10z"/>
<path d="M440 1940 c0 -5 -5 -10 -12 -10 -16 0 -59 -50 -52 -61 7 -12 44 -11
44 1 0 6 11 10 25 10 14 0 25 5 25 10 0 6 9 10 20 10 11 0 20 4 20 9 0 5 10
11 22 13 12 2 23 9 26 16 3 9 -13 12 -57 12 -34 0 -61 -4 -61 -10z"/>
<path d="M5000 1790 c0 -11 5 -20 10 -20 6 0 10 9 10 20 0 11 -4 20 -10 20 -5
0 -10 -9 -10 -20z"/>
<path d="M361 1751 c-27 -27 -46 -41 -49 -33 -6 20 -20 14 -24 -10 -2 -15 -11
-24 -25 -26 -13 -2 -23 -8 -23 -13 0 -5 -4 -9 -10 -9 -5 0 -10 7 -10 16 0 8
-4 12 -10 9 -5 -3 -10 -15 -10 -26 0 -14 -7 -19 -26 -19 -25 0 -26 -2 -20 -32
4 -18 11 -34 16 -36 6 -2 10 -35 10 -73 0 -39 4 -69 10 -69 6 0 10 -12 10 -27
0 -14 7 -34 16 -44 19 -21 54 -13 54 12 0 11 5 19 10 19 6 0 10 11 10 25 0 14
5 25 10 25 6 0 10 9 10 20 0 11 3 20 8 20 12 0 42 60 42 84 0 21 78 116 95
116 10 0 35 27 35 38 0 6 -6 13 -12 16 -10 5 -10 7 0 12 6 3 12 10 12 15 0 18
-23 8 -51 -22 -26 -28 -30 -30 -45 -14 -15 15 -14 18 11 39 18 16 23 25 13 28
-7 2 -33 -17 -57 -41z m-11 -61 c0 -5 -2 -10 -4 -10 -3 0 -8 5 -11 10 -3 6 -1
10 4 10 6 0 11 -4 11 -10z"/>
<path d="M527 1780 c-21 -25 -21 -30 -3 -30 8 0 18 9 21 21 9 29 2 32 -18 9z"/>
<path d="M106 1739 c-24 -24 -26 -30 -12 -35 24 -9 47 3 44 23 -2 10 3 18 10
19 6 1 17 2 22 3 6 0 10 6 10 11 0 20 -46 8 -74 -21z"/>
<path d="M4350 1586 c0 -9 7 -16 16 -16 17 0 14 22 -4 28 -7 2 -12 -3 -12 -12z"/>
<path d="M20 1580 c0 -5 7 -10 15 -10 8 0 15 5 15 10 0 6 -7 10 -15 10 -8 0
-15 -4 -15 -10z"/>
<path d="M4390 1560 c0 -5 5 -10 11 -10 11 0 39 -25 39 -35 0 -10 28 -35 39
-35 6 0 11 -4 11 -10 0 -5 9 -10 20 -10 11 0 20 -3 20 -8 0 -4 16 -16 35 -26
19 -11 35 -23 35 -28 0 -5 4 -6 10 -3 11 7 -9 45 -23 45 -5 0 -23 15 -39 33
-17 17 -37 31 -45 29 -7 -2 -16 4 -19 13 -3 8 -14 15 -23 15 -9 0 -23 9 -31
20 -15 21 -40 27 -40 10z"/>
<path d="M69 1533 c-2 -29 2 -48 12 -51 5 -2 9 -12 9 -23 0 -10 5 -19 10 -19
6 0 10 -11 10 -24 0 -13 6 -26 12 -28 9 -3 8 -10 -5 -22 -16 -17 -19 -16 -58
28 -23 25 -45 46 -50 46 -5 0 -9 -85 -9 -190 0 -104 2 -190 5 -190 10 0 65 60
65 71 0 5 25 35 55 65 54 55 55 57 55 115 0 33 -4 59 -10 59 -5 0 -10 11 -10
24 0 25 -29 88 -42 94 -5 2 -8 10 -8 19 0 14 -23 43 -34 43 -3 0 -7 -8 -7 -17z"/>
<path d="M636 1491 c-17 -19 -17 -21 2 -41 14 -15 22 -18 27 -10 4 7 1 16 -6
21 -12 8 -12 11 1 19 10 6 12 12 4 20 -7 7 -16 5 -28 -9z"/>
<path d="M4352 1458 c2 -13 8 -23 13 -23 6 0 11 10 13 23 2 15 -2 22 -13 22
-11 0 -15 -7 -13 -22z"/>
<path d="M5437 1454 c-8 -8 1 -24 14 -24 5 0 9 7 9 15 0 15 -12 20 -23 9z"/>
<path d="M3653 1315 c-7 -8 -13 -28 -13 -45 0 -16 -4 -30 -10 -30 -15 0 -12
-19 5 -36 13 -14 17 -13 33 2 18 19 23 51 15 97 -5 30 -12 33 -30 12z"/>
<path d="M1795 1160 c4 -6 -5 -10 -19 -10 -14 0 -26 -4 -26 -10 0 -18 60 -11
82 10 l22 20 -33 0 c-19 0 -30 -4 -26 -10z"/>
<path d="M3600 1140 c0 -5 5 -10 10 -10 6 0 10 5 10 10 0 6 -4 10 -10 10 -5 0
-10 -4 -10 -10z"/>
<path d="M4848 1131 c-20 -19 -15 -31 13 -31 22 0 31 13 23 34 -8 20 -14 19
-36 -3z"/>
<path d="M1646 1121 c-3 -5 1 -12 10 -15 20 -8 54 2 54 15 0 12 -57 12 -64 0z"/>
<path d="M1040 1096 c0 -9 7 -16 16 -16 9 0 14 5 12 12 -6 18 -28 21 -28 4z"/>
<path d="M1085 1068 c1 -26 5 -32 20 -30 10 2 24 10 32 18 13 12 12 16 -1 29
-8 8 -23 15 -33 15 -15 0 -19 -7 -18 -32z"/>
<path d="M1840 1044 c0 -17 22 -14 28 4 2 7 -3 12 -12 12 -9 0 -16 -7 -16 -16z"/>
<path d="M4420 1025 c0 -19 5 -35 10 -35 6 0 10 16 10 35 0 19 -4 35 -10 35
-5 0 -10 -16 -10 -35z"/>
<path d="M1247 994 c-10 -11 -8 -64 2 -64 9 0 17 -49 26 -160 8 -102 18 -160
26 -160 5 0 9 -29 9 -65 0 -37 4 -65 10 -65 6 0 10 -20 10 -45 0 -25 5 -45 10
-45 6 0 10 -17 10 -37 0 -21 7 -47 15 -57 8 -11 15 -36 15 -56 0 -37 19 -90
33 -90 4 0 7 -20 7 -45 0 -25 5 -45 10 -45 6 0 10 -13 10 -30 0 -25 4 -30 25
-30 21 0 25 5 25 30 0 17 -4 30 -10 30 -5 0 -10 6 -10 14 0 7 -7 19 -15 26
-10 8 -15 31 -15 66 0 30 -4 54 -10 54 -5 0 -10 18 -10 40 0 22 -4 40 -10 40
-5 0 -10 20 -10 44 0 25 -4 48 -10 51 -5 3 -10 27 -10 53 0 26 -7 56 -15 66
-8 11 -15 39 -15 62 0 24 -4 45 -8 48 -4 2 -9 40 -11 83 -1 43 -7 79 -12 81
-5 2 -9 19 -9 37 0 18 -6 36 -12 39 -10 5 -10 7 0 12 14 7 17 54 3 54 -6 0
-11 15 -13 32 -3 31 -25 48 -41 32z"/>
<path d="M4440 915 c0 -19 5 -35 10 -35 6 0 10 16 10 35 0 19 -4 35 -10 35 -5
0 -10 -16 -10 -35z"/>
<path d="M5483 860 c-3 -11 -9 -20 -14 -20 -15 0 -11 -130 5 -146 19 -18 26
-18 26 1 0 8 -6 15 -12 15 -8 0 -9 3 -3 8 9 6 16 162 7 162 -2 0 -6 -9 -9 -20z"/>
<path d="M4467 814 c-10 -11 -9 -62 2 -69 5 -3 12 -2 15 3 7 12 -8 75 -17 66z"/>
<path d="M515 790 c-8 -13 -1 -24 14 -19 6 3 7 10 2 18 -6 10 -10 10 -16 1z"/>
<path d="M5480 651 c0 -6 5 -13 10 -16 6 -3 10 1 10 9 0 9 -4 16 -10 16 -5 0
-10 -4 -10 -9z"/>
<path d="M2820 206 c0 -9 -15 -14 -52 -15 -29 0 -54 -5 -56 -11 -5 -14 -35
-13 -50 2 -9 9 -16 6 -30 -10 -15 -17 -30 -22 -70 -22 -30 0 -53 -5 -56 -12
-5 -10 -7 -10 -12 0 -8 18 -42 15 -65 -6 -16 -15 -43 -20 -134 -26 -64 -3
-123 -10 -133 -15 -26 -13 -86 -31 -105 -31 -9 0 -17 -4 -17 -10 0 -6 -28 -10
-65 -10 -37 0 -65 -4 -65 -10 0 -5 -16 -10 -35 -10 -19 0 -35 -5 -35 -11 0 -8
41 -10 148 -5 186 7 272 16 272 27 0 5 16 9 35 9 19 0 35 5 35 10 0 6 11 10
25 10 14 0 25 5 25 10 0 6 18 10 40 10 22 0 40 -4 40 -10 0 -18 18 -11 25 10
4 14 15 20 36 20 16 0 29 -4 29 -10 0 -12 27 -14 32 -2 6 14 66 42 92 42 14 0
35 -4 48 -9 13 -6 46 -13 73 -17 l50 -7 -37 -10 c-21 -5 -38 -13 -38 -18 0 -5
-18 -9 -41 -9 -42 0 -69 -17 -69 -44 0 -15 37 -16 360 -15 198 0 360 4 360 8
0 4 -9 18 -20 31 -16 19 -29 23 -67 21 -26 -1 -51 -7 -56 -14 -7 -9 -10 -9
-14 1 -3 7 -25 12 -58 12 -30 0 -55 5 -57 11 -2 7 -46 13 -117 15 -77 3 -119
8 -133 18 -21 15 -21 15 6 22 14 3 26 10 26 15 0 5 18 9 40 9 22 0 40 5 40 10
0 6 20 10 44 10 35 0 45 4 49 19 3 11 2 22 -1 25 -3 3 -59 6 -124 6 -93 0
-118 -3 -118 -14z m350 -176 c0 -5 -5 -10 -11 -10 -5 0 -7 5 -4 10 3 6 8 10
11 10 2 0 4 -4 4 -10z m45 0 c3 -5 1 -10 -4 -10 -6 0 -11 5 -11 10 0 6 2 10 4
10 3 0 8 -4 11 -10z"/>
<path d="M3127 170 c4 -14 14 -20 33 -20 16 0 30 -5 32 -11 2 -6 26 -12 53
-13 28 0 54 -7 58 -13 10 -15 47 -17 47 -3 0 6 9 10 19 10 28 0 33 14 11 32
-37 32 -60 38 -158 38 -95 0 -100 -1 -95 -20z"/>
<path d="M3615 30 c3 -5 -3 -10 -14 -10 -12 0 -21 -4 -21 -10 0 -5 18 -10 40
-10 43 0 47 4 26 26 -16 16 -40 19 -31 4z"/>
<path d="M2465 10 c-3 -5 1 -10 9 -10 9 0 16 5 16 10 0 6 -4 10 -9 10 -6 0
-13 -4 -16 -10z"/>
<path d="M2575 10 c-3 -5 1 -10 9 -10 9 0 16 5 16 10 0 6 -4 10 -9 10 -6 0
-13 -4 -16 -10z"/>
<path d="M3395 10 c-4 -6 5 -10 19 -10 14 0 26 5 26 10 0 6 -9 10 -19 10 -11
0 -23 -4 -26 -10z"/>
<path d="M3510 10 c0 -5 5 -10 10 -10 6 0 10 5 10 10 0 6 -4 10 -10 10 -5 0
-10 -4 -10 -10z"/>
<path d="M3880 10 c0 -6 40 -10 96 -10 56 0 93 4 89 9 -7 13 -185 13 -185 1z"/>
<path d="M4130 10 c0 -5 5 -10 10 -10 6 0 10 5 10 10 0 6 -4 10 -10 10 -5 0
-10 -4 -10 -10z"/>
</g>
</svg>
